<svg width="420" height="420" viewBox="0 0 420 420" fill="none" xmlns="http://www.w3.org/2000/svg">
<g clip-path="url(#clip0_242_2049)">
<path d="M365.878 96.3178C373.006 91.0952 383.076 92.6113 387.74 100.117C412.895 140.594 423.594 188.599 417.773 236.219C411.301 289.152 384.904 337.629 343.951 371.786C302.999 405.942 250.571 423.21 197.337 420.075C149.445 417.255 104.14 398.113 68.8349 366.102C62.2886 360.166 62.6046 349.987 69.0218 343.912L88.4154 325.554C94.8326 319.479 104.91 319.832 111.629 325.57C136.532 346.838 167.808 359.53 200.787 361.472C239.116 363.729 276.865 351.296 306.35 326.703C335.836 302.111 354.842 267.207 359.501 229.095C363.51 196.303 356.638 163.256 340.186 134.941C335.747 127.301 337.208 117.324 344.336 112.101L365.878 96.3178Z" fill="#E857D1"/>
<mask id="path-2-inside-1_242_2049" fill="white">
<path d="M192.783 17.8529C192.012 9.04996 198.529 1.22529 207.365 1.1285C235.001 0.825797 262.479 5.99017 288.201 16.3826C313.924 26.7751 337.278 42.1483 356.947 61.5633C363.236 67.771 362.488 77.9265 355.819 83.7238L335.664 101.244C328.995 107.041 318.942 106.262 312.472 100.244C299.01 87.7222 283.34 77.7337 266.21 70.813C249.081 63.8923 230.87 60.1917 212.488 59.8474C203.653 59.682 195.88 53.2592 195.11 44.4563L192.783 17.8529Z"/>
</mask>
<path d="M192.783 17.8529C192.012 9.04996 198.529 1.22529 207.365 1.1285C235.001 0.825797 262.479 5.99017 288.201 16.3826C313.924 26.7751 337.278 42.1483 356.947 61.5633C363.236 67.771 362.488 77.9265 355.819 83.7238L335.664 101.244C328.995 107.041 318.942 106.262 312.472 100.244C299.01 87.7222 283.34 77.7337 266.21 70.813C249.081 63.8923 230.87 60.1917 212.488 59.8474C203.653 59.682 195.88 53.2592 195.11 44.4563L192.783 17.8529Z" fill="white" fill-opacity="0.2" stroke="white" stroke-width="2" stroke-dasharray="6 6" mask="url(#path-2-inside-1_242_2049)"/>
<path d="M90.4322 58.1709C84.9919 51.2076 86.1957 41.096 93.5535 36.2024C113.974 22.6212 136.62 12.7271 160.459 6.97196C169.049 4.89823 177.286 10.8852 178.699 19.6081L182.969 45.9697C184.381 54.6925 178.422 62.8257 169.897 65.1534C155.763 69.0129 142.265 74.9099 129.83 82.6582C122.331 87.3313 112.314 86.1781 106.874 79.2148L90.4322 58.1709Z" fill="#7256FF"/>
<path d="M17.8853 183.825C9.13474 182.596 2.97654 174.486 4.86992 165.855C7.29004 154.822 10.5978 144.003 14.7608 133.503C18.0177 125.289 27.6579 122.009 35.6002 125.883L59.6025 137.589C67.5448 141.463 70.7555 151.021 67.7438 159.328C65.9911 164.163 64.4867 169.084 63.2363 174.072C61.0876 182.643 53.081 188.772 44.3305 187.542L17.8853 183.825Z" fill="#F63232"/>
<path d="M15.0033 245.101C8.47653 246.252 2.21663 241.896 1.44103 235.314C0.321279 225.812 -0.146674 216.244 0.0404584 206.677C0.170076 200.051 5.97503 195.105 12.5829 195.613L47.1857 198.276C53.7936 198.784 58.6881 204.558 58.706 211.185C58.7185 215.833 58.9456 220.477 59.3866 225.103C60.0156 231.7 55.7078 237.924 49.1811 239.075L15.0033 245.101Z" fill="#339FAD"/>
<path d="M22.3282 282.688C17.6877 284.47 12.4624 282.157 10.8819 277.445C9.99721 274.807 9.16509 272.151 8.38607 269.48C6.99437 264.709 9.96549 259.828 14.7926 258.642L54.3226 248.933C59.1497 247.747 63.9977 250.709 65.4688 255.457C65.5645 255.766 65.6612 256.074 65.7588 256.382C67.2604 261.12 64.97 266.32 60.3296 268.101L22.3282 282.688Z" fill="#E83EC2"/>
<path d="M39.4911 317.112C35.2759 319.746 29.7054 318.473 27.2547 314.149C25.8829 311.728 24.5594 309.28 23.285 306.807C21.0084 302.388 22.9936 297.03 27.5058 294.945L64.4569 277.872C68.9691 275.787 74.2932 277.769 76.6432 282.149C76.796 282.434 76.9498 282.718 77.1044 283.002C79.4826 287.367 78.2263 292.907 74.011 295.541L39.4911 317.112Z" fill="#2400FF"/>
<path d="M52.8819 341.214C50.7665 342.989 47.6078 342.717 45.8837 340.56C45.2233 339.734 44.5691 338.903 43.9213 338.066C42.2301 335.883 42.7083 332.749 44.931 331.11L84.3407 302.055C86.4488 300.501 89.4118 300.955 91.0316 303.013C92.6513 305.072 92.3959 308.058 90.3895 309.742L52.8819 341.214Z" fill="#6BBF18"/>
<path d="M42.1058 114.186C34.4531 109.768 31.7813 99.9416 36.7701 92.648C43.147 83.3253 50.2668 74.533 58.06 66.3572C64.1569 59.9609 74.3238 60.5314 80.2366 67.0983L98.1058 86.944C104.019 93.5108 103.415 103.576 97.5106 110.15C94.0745 113.976 90.8361 117.975 87.8082 122.131C82.6051 129.274 72.8857 131.957 65.233 127.538L42.1058 114.186Z" fill="#DCA068"/>
<path d="M207.407 20.7325C207.516 15.7631 211.634 11.8024 216.594 12.1228C232.628 13.1588 248.491 16.0265 263.872 20.6701C268.63 22.1066 271.101 27.2587 269.463 31.9514L264.291 46.7638C262.652 51.4565 257.525 53.909 252.755 52.5112C240.728 48.9867 228.359 46.7507 215.859 45.8408C210.901 45.4799 206.958 41.3875 207.066 36.4182L207.407 20.7325Z" fill="#F2CF68"/>
<path d="M280.567 37.2847C282.703 32.1914 288.575 29.7718 293.561 32.1468C299.487 34.9695 305.278 38.0679 310.915 41.4318C315.658 44.2619 316.903 50.4895 313.851 55.0924L306.286 66.5015C303.234 71.1043 297.042 72.335 292.274 69.5479C288.435 67.3038 284.512 65.2052 280.515 63.2567C275.551 60.8368 273.138 55.0025 275.274 49.9092L280.567 37.2847Z" fill="#F2CF68"/>
<path d="M325.617 61.0012C328.292 57.4841 333.321 56.789 336.734 59.5949C339.428 61.8091 342.065 64.09 344.646 66.4353C347.915 69.4071 347.954 74.4844 344.86 77.6386L332.473 90.2669C329.379 93.421 324.325 93.4551 321.035 90.5069C319.489 89.1221 317.919 87.7646 316.325 86.435C312.933 83.6045 312.237 78.5994 314.911 75.0824L325.617 61.0012Z" fill="#F2CF68"/>
</g>
<defs>
<clipPath id="clip0_242_2049">
<rect width="420" height="420" fill="white"/>
</clipPath>
</defs>
</svg>
