<svg width="77" height="54" viewBox="0 0 77 54" fill="none" xmlns="http://www.w3.org/2000/svg">
<path d="M32.7851 46.5861V53.4098H3.77174V46.5861H14.3979V15.4918C14.3979 14.2623 14.4342 12.9959 14.5067 11.6926L6.96321 18.1107C6.52801 18.4549 6.09281 18.6762 5.65761 18.7746C5.24659 18.8484 4.84766 18.8484 4.46081 18.7746C4.09814 18.7008 3.77174 18.5779 3.48161 18.4057C3.19147 18.209 2.97387 18 2.82881 17.7787L0 13.832L15.9936 0H23.3558V46.5861H32.7851Z" fill="white"/>
<path d="M56.2554 19.4385L54.4421 21.7254C55.4575 21.209 56.5455 20.8156 57.7061 20.5451C58.8908 20.25 60.1601 20.1025 61.5141 20.1025C63.4967 20.1025 65.4188 20.4344 67.2805 21.0984C69.1664 21.7623 70.8226 22.7705 72.249 24.123C73.6755 25.4508 74.824 27.1107 75.6944 29.1025C76.5648 31.0943 77 33.418 77 36.0738C77 38.5574 76.5527 40.8934 75.6581 43.082C74.7635 45.2459 73.5063 47.1393 71.8864 48.7623C70.2665 50.3852 68.3081 51.6639 66.0112 52.5984C63.7384 53.5328 61.224 54 58.4677 54C55.6631 54 53.1486 53.5451 50.9242 52.6352C48.6998 51.7254 46.8019 50.459 45.2303 48.8361C43.6588 47.1885 42.4499 45.2213 41.6036 42.9344C40.7816 40.6229 40.3706 38.0656 40.3706 35.2623C40.3706 32.7541 40.8662 30.1844 41.8575 27.5533C42.873 24.8975 44.4324 22.1434 46.5359 19.291L59.048 2.21312C59.4832 1.62295 60.1118 1.11885 60.9338 0.700822C61.78 0.282787 62.7472 0.0737695 63.8352 0.0737695H71.8139L56.2554 19.4385ZM58.2864 46.5492C59.7128 46.5492 61.0184 46.3033 62.2032 45.8115C63.412 45.3197 64.4396 44.6311 65.2858 43.7459C66.1562 42.8607 66.8332 41.8279 67.3168 40.6475C67.8003 39.4426 68.0421 38.1393 68.0421 36.7377C68.0421 35.2131 67.8124 33.8484 67.353 32.6434C66.8936 31.4139 66.2409 30.3811 65.3946 29.5451C64.5484 28.6844 63.5329 28.0328 62.3482 27.5902C61.1635 27.1475 59.8579 26.9262 58.4314 26.9262C57.0049 26.9262 55.7114 27.1721 54.5509 27.6639C53.3903 28.1557 52.399 28.8443 51.577 29.7295C50.7549 30.5902 50.1142 31.623 49.6549 32.8279C49.1955 34.0082 48.9658 35.2869 48.9658 36.6639C48.9658 38.1393 49.1592 39.4918 49.5461 40.7213C49.9571 41.9262 50.5494 42.959 51.3231 43.8197C52.121 44.6803 53.1002 45.3566 54.2607 45.8484C55.4213 46.3156 56.7631 46.5492 58.2864 46.5492Z" fill="white"/>
</svg>
