<svg width="24" height="24" viewBox="0 0 24 24" fill="none" xmlns="http://www.w3.org/2000/svg">
<path d="M4.2587 14.2587L6.51934 12L4.2587 9.7413L2 12L4.2587 14.2587Z" fill="#788CAB"/>
<path d="M15.8707 10.388L12 6.51544L8.12935 10.388L5.87065 8.12935L12 2L18.1293 8.12935L15.8707 10.388Z" fill="#788CAB"/>
<path d="M17.4846 12L19.7433 9.7413L22 12L19.7433 14.2587L17.4846 12Z" fill="#788CAB"/>
<path d="M8.12935 13.6139L12 17.4846L15.8707 13.6139L18.1293 15.8707L12 22L5.87065 15.8707L8.12935 13.6139Z" fill="#788CAB"/>
<path d="M14.2587 12L12 14.2587L9.7413 12L12 9.7413L14.2587 12Z" fill="#788CAB"/>
</svg>
