<svg width="20" height="20" viewBox="0 0 20 20" fill="none" xmlns="http://www.w3.org/2000/svg">
<path d="M3.54892 11.8823L5.43279 10.0001L3.54892 8.11784L1.66667 10.0001L3.54892 11.8823Z" fill="#F2CF68"/>
<path d="M13.2256 8.65678L10 5.42961L6.77446 8.65678L4.89222 6.77454L10 1.66675L15.1078 6.77454L13.2256 8.65678Z" fill="#F2CF68"/>
<path d="M14.5705 10.0001L16.4527 8.11784L18.3333 10.0001L16.4527 11.8823L14.5705 10.0001Z" fill="#F2CF68"/>
<path d="M6.77446 11.345L10 14.5706L13.2256 11.345L15.1078 13.2256L10 18.3334L4.89222 13.2256L6.77446 11.345Z" fill="#F2CF68"/>
<path d="M11.8823 10.0001L10 11.8823L8.11776 10.0001L10 8.11784L11.8823 10.0001Z" fill="#F2CF68"/>
</svg>
