<svg width="18" height="16" viewBox="0 0 18 16" fill="none" xmlns="http://www.w3.org/2000/svg">
<path d="M2.33317 2.16667H4.83317L6.49984 0.5H11.4998L13.1665 2.16667H15.6665C16.1085 2.16667 16.5325 2.34226 16.845 2.65482C17.1576 2.96738 17.3332 3.39131 17.3332 3.83333V13.8333C17.3332 14.2754 17.1576 14.6993 16.845 15.0118C16.5325 15.3244 16.1085 15.5 15.6665 15.5H2.33317C1.89114 15.5 1.46722 15.3244 1.15466 15.0118C0.842099 14.6993 0.666504 14.2754 0.666504 13.8333V3.83333C0.666504 3.39131 0.842099 2.96738 1.15466 2.65482C1.46722 2.34226 1.89114 2.16667 2.33317 2.16667ZM8.99984 4.66667C7.89477 4.66667 6.83496 5.10565 6.05356 5.88705C5.27216 6.66846 4.83317 7.72826 4.83317 8.83333C4.83317 9.9384 5.27216 10.9982 6.05356 11.7796C6.83496 12.561 7.89477 13 8.99984 13C10.1049 13 11.1647 12.561 11.9461 11.7796C12.7275 10.9982 13.1665 9.9384 13.1665 8.83333C13.1665 7.72826 12.7275 6.66846 11.9461 5.88705C11.1647 5.10565 10.1049 4.66667 8.99984 4.66667ZM8.99984 6.33333C9.66288 6.33333 10.2988 6.59672 10.7676 7.06557C11.2364 7.53441 11.4998 8.17029 11.4998 8.83333C11.4998 9.49637 11.2364 10.1323 10.7676 10.6011C10.2988 11.0699 9.66288 11.3333 8.99984 11.3333C8.3368 11.3333 7.70091 11.0699 7.23207 10.6011C6.76323 10.1323 6.49984 9.49637 6.49984 8.83333C6.49984 8.17029 6.76323 7.53441 7.23207 7.06557C7.70091 6.59672 8.3368 6.33333 8.99984 6.33333Z" fill="#788CAB"/>
</svg>
