<svg width="20" height="20" viewBox="0 0 20 20" fill="none" xmlns="http://www.w3.org/2000/svg">
<mask id="path-1-outside-1_1101_9324" maskUnits="userSpaceOnUse" x="-0.166992" y="4" width="20" height="12" fill="black">
<rect fill="white" x="-0.166992" y="4" width="20" height="12"/>
<path fill-rule="evenodd" clip-rule="evenodd" d="M0.833008 15L1.90723 8.27314L6.15635 5L9.14029 6.71558V7.77652H9.09255L6.27571 6.12867L2.79047 8.76975L1.97884 13.9391L8.16156 9.22122V10.4176L2.14594 15H0.833008ZM13.843 5L18.116 8.27314L19.1663 15H17.8534L11.8378 10.4176V9.22122L18.0205 13.9391L17.2089 8.76975L13.7236 6.12867L10.9068 7.77652H10.8591V6.71558L13.843 5Z"/>
</mask>
<path fill-rule="evenodd" clip-rule="evenodd" d="M0.833008 15L1.90723 8.27314L6.15635 5L9.14029 6.71558V7.77652H9.09255L6.27571 6.12867L2.79047 8.76975L1.97884 13.9391L8.16156 9.22122V10.4176L2.14594 15H0.833008ZM13.843 5L18.116 8.27314L19.1663 15H17.8534L11.8378 10.4176V9.22122L18.0205 13.9391L17.2089 8.76975L13.7236 6.12867L10.9068 7.77652H10.8591V6.71558L13.843 5Z" fill="#7256FF"/>
<path d="M1.90723 8.27314L1.66313 7.95625L1.53728 8.05319L1.51223 8.21006L1.90723 8.27314ZM0.833008 15L0.438013 14.9369L0.364063 15.4H0.833008V15ZM6.15635 5L6.35572 4.65323L6.124 4.52L5.91225 4.68312L6.15635 5ZM9.14029 6.71558H9.54029V6.48415L9.33966 6.36881L9.14029 6.71558ZM9.14029 7.77652V8.17652H9.54029V7.77652H9.14029ZM9.09255 7.77652L8.89057 8.12178L8.98414 8.17652H9.09255V7.77652ZM6.27571 6.12867L6.47769 5.78341L6.24707 5.6485L6.03412 5.80986L6.27571 6.12867ZM2.79047 8.76975L2.54888 8.45094L2.42033 8.54836L2.39531 8.70771L2.79047 8.76975ZM1.97884 13.9391L1.58368 13.877L1.42907 14.8617L2.22149 14.257L1.97884 13.9391ZM8.16156 9.22122H8.56156V8.41283L7.9189 8.90322L8.16156 9.22122ZM8.16156 10.4176L8.40394 10.7358L8.56156 10.6157V10.4176H8.16156ZM2.14594 15V15.4H2.28094L2.38833 15.3182L2.14594 15ZM18.116 8.27314L18.5112 8.21143L18.4865 8.05306L18.3592 7.95559L18.116 8.27314ZM13.843 5L14.0862 4.68246L13.8747 4.52039L13.6436 4.65323L13.843 5ZM19.1663 15V15.4H19.6337L19.5616 14.9383L19.1663 15ZM17.8534 15L17.611 15.3182L17.7184 15.4H17.8534V15ZM11.8378 10.4176H11.4378V10.6157L11.5954 10.7358L11.8378 10.4176ZM11.8378 9.22122L12.0804 8.90322L11.4378 8.41284V9.22122H11.8378ZM18.0205 13.9391L17.7779 14.257L18.5703 14.8617L18.4157 13.877L18.0205 13.9391ZM17.2089 8.76975L17.604 8.7077L17.579 8.54836L17.4505 8.45094L17.2089 8.76975ZM13.7236 6.12867L13.9652 5.80986L13.7523 5.6485L13.5217 5.78341L13.7236 6.12867ZM10.9068 7.77652V8.17652H11.0152L11.1088 8.12178L10.9068 7.77652ZM10.8591 7.77652H10.4591V8.17652H10.8591V7.77652ZM10.8591 6.71558L10.6597 6.36881L10.4591 6.48415V6.71558H10.8591ZM1.51223 8.21006L0.438013 14.9369L1.228 15.0631L2.30222 8.33622L1.51223 8.21006ZM5.91225 4.68312L1.66313 7.95625L2.15132 8.59002L6.40045 5.31688L5.91225 4.68312ZM9.33966 6.36881L6.35572 4.65323L5.95698 5.34677L8.94092 7.06235L9.33966 6.36881ZM9.54029 7.77652V6.71558H8.74029V7.77652H9.54029ZM9.09255 8.17652H9.14029V7.37652H9.09255V8.17652ZM6.07373 6.47393L8.89057 8.12178L9.29453 7.43126L6.47769 5.78341L6.07373 6.47393ZM3.03205 9.08855L6.5173 6.44747L6.03412 5.80986L2.54888 8.45094L3.03205 9.08855ZM2.374 14.0011L3.18563 8.83179L2.39531 8.70771L1.58368 13.877L2.374 14.0011ZM7.9189 8.90322L1.73619 13.6211L2.22149 14.257L8.40421 9.53921L7.9189 8.90322ZM8.56156 10.4176V9.22122H7.76156V10.4176H8.56156ZM2.38833 15.3182L8.40394 10.7358L7.91917 10.0994L1.90355 14.6818L2.38833 15.3182ZM0.833008 15.4H2.14594V14.6H0.833008V15.4ZM18.3592 7.95559L14.0862 4.68246L13.5998 5.31754L17.8728 8.59068L18.3592 7.95559ZM19.5616 14.9383L18.5112 8.21143L17.7208 8.33485L18.7711 15.0617L19.5616 14.9383ZM17.8534 15.4H19.1663V14.6H17.8534V15.4ZM11.5954 10.7358L17.611 15.3182L18.0958 14.6818L12.0802 10.0994L11.5954 10.7358ZM11.4378 9.22122V10.4176H12.2378V9.22122H11.4378ZM18.2632 13.6211L12.0804 8.90322L11.5951 9.53921L17.7779 14.257L18.2632 13.6211ZM16.8137 8.83179L17.6254 14.0011L18.4157 13.877L17.604 8.7077L16.8137 8.83179ZM13.4821 6.44747L16.9673 9.08855L17.4505 8.45094L13.9652 5.80986L13.4821 6.44747ZM11.1088 8.12178L13.9256 6.47393L13.5217 5.78341L10.7048 7.43126L11.1088 8.12178ZM10.8591 8.17652H10.9068V7.37652H10.8591V8.17652ZM10.4591 6.71558V7.77652H11.2591V6.71558H10.4591ZM13.6436 4.65323L10.6597 6.36881L11.0584 7.06235L14.0424 5.34677L13.6436 4.65323Z" fill="#7256FF" mask="url(#path-1-outside-1_1101_9324)"/>
</svg>
