<svg width="24" height="24" viewBox="0 0 24 24" fill="none" xmlns="http://www.w3.org/2000/svg">
<path fill-rule="evenodd" clip-rule="evenodd" d="M15.4503 7.9125C14.5128 7.02 13.3278 6.5625 12.0003 6.5625C9.65277 6.5625 7.66527 8.145 6.95277 10.2825L6.9525 10.2823V10.2825C6.7725 10.8225 6.6675 11.4 6.6675 12C6.6675 12.6 6.765 13.1775 6.9525 13.7175L6.95242 13.7176H6.95277C7.66527 15.8551 9.65277 17.4376 12.0003 17.4376C13.2151 17.4376 14.2425 17.1077 15.0525 16.5678V16.5674C15.9975 15.9299 16.635 14.9924 16.8525 13.8824H12V10.4999H20.475C20.565 11.0474 20.6175 11.6099 20.6175 12.2024C20.6175 14.9399 19.6425 17.2499 17.9475 18.8174L17.9478 18.8176C16.4628 20.1901 14.4303 21.0001 12.0003 21.0001C8.48277 21.0001 5.44527 18.9751 3.96777 16.0351V16.0348L3.9675 16.035C3.3525 14.82 3 13.455 3 12C3 10.545 3.3525 9.18003 3.9675 7.96503H3.96781L3.96777 7.965C5.44527 5.025 8.48277 3 12.0003 3C14.4303 3 16.4628 3.8925 18.0153 5.3475L15.4503 7.9125Z" fill="#788CAB"/>
</svg>
