<svg width="37" height="48" viewBox="0 0 37 48" fill="none" xmlns="http://www.w3.org/2000/svg">
<path fill-rule="evenodd" clip-rule="evenodd" d="M2.46125 6.85767L0.330993 20.9514H2.93464L14.8641 11.3506V8.84403L2.60326 18.7285L4.21278 7.89814L11.1243 2.36472L16.7103 5.81719H16.805V3.59437L10.8876 0L2.46125 6.85767ZM34.6045 6.85767L26.1308 0L20.2134 3.59437V5.81719H20.3081L25.8941 2.36472L32.8056 7.89814L34.4151 18.7285L22.1543 8.84403V11.3506L34.0837 20.9514H36.6874L34.6045 6.85767ZM6.05916 34.0033C5.49112 34.1924 4.92307 34.287 4.35502 34.287C3.55029 34.287 2.79289 34.0979 2.13017 33.6722C1.46745 33.3412 0.946748 32.821 0.568051 32.2062C0.189354 31.5914 0 30.882 0 30.078C0 29.274 0.189354 28.5646 0.568051 27.9498C0.946748 27.335 1.46745 26.8621 2.13017 26.4838C2.79289 26.1527 3.55029 25.9636 4.35502 25.9636C5.01774 25.9636 5.63312 26.0581 6.20117 26.2946C6.72188 26.5311 7.19524 26.8621 7.57394 27.2877L7.62128 27.335L6.6272 28.3282L6.57986 28.2809C6.01181 27.6661 5.30176 27.3823 4.44969 27.3823C3.88164 27.3823 3.40828 27.4769 2.98225 27.7134C2.55621 27.9026 2.22485 28.2336 1.98817 28.6592C1.75148 29.0849 1.60946 29.5578 1.60946 30.078C1.60946 30.5982 1.75148 31.0712 1.98817 31.4968C2.22485 31.9224 2.55621 32.2535 2.98225 32.4899C3.40828 32.7264 3.92898 32.8683 4.44969 32.8683C5.01773 32.8683 5.53845 32.7264 6.01182 32.4899V29.9834H7.5266V33.2466C7.10057 33.5776 6.62721 33.8141 6.05916 34.0033ZM13.3491 34.0033C13.6331 33.9087 13.8225 33.7195 14.0118 33.5303V34.1451H15.4793V30.5509C15.4793 29.6997 15.2426 28.9903 14.7692 28.5646C14.2959 28.139 13.5858 27.9026 12.6864 27.9026C12.1657 27.9026 11.6923 27.9498 11.2663 28.0917C10.7929 28.2336 10.4142 28.4228 10.0829 28.6592L10.0355 28.7065L10.6509 29.8415L10.6982 29.7943C10.9349 29.6051 11.1716 29.4632 11.503 29.3686C11.8343 29.274 12.1657 29.2267 12.497 29.2267C12.9704 29.2267 13.3491 29.3213 13.5858 29.5578C13.8225 29.7943 13.9645 30.078 13.9645 30.5036V30.5509H12.4497C11.5503 30.5509 10.9349 30.7401 10.5089 31.0711C10.0829 31.4022 9.8935 31.8751 9.8935 32.4426C9.8935 32.821 9.98817 33.1047 10.1775 33.3885C10.3669 33.6722 10.6509 33.9087 10.9823 34.0506C11.3136 34.1924 11.7397 34.287 12.213 34.287C12.5917 34.2397 13.0178 34.1452 13.3491 34.0033ZM13.3491 32.8683C13.0651 33.0101 12.7811 33.1047 12.4497 33.1047C12.1184 33.1047 11.8343 33.0101 11.645 32.8683C11.4556 32.7264 11.3609 32.5372 11.3609 32.3007C11.3609 31.7805 11.7396 31.5441 12.5444 31.5441H13.9645V32.1589C13.8225 32.4899 13.6331 32.6791 13.3491 32.8683ZM26.8875 30.7874C26.8875 30.3145 26.7928 29.8888 26.5561 29.6524C26.3668 29.4159 26.0354 29.274 25.5147 29.274C25.0887 29.274 24.71 29.4632 24.426 29.747C24.1419 30.078 23.9999 30.5036 23.9999 31.0711V34.1924H22.4851V30.8347C22.4851 30.3618 22.3905 29.9361 22.1538 29.6997C21.9644 29.4632 21.6331 29.3213 21.2071 29.3213C20.781 29.3213 20.4023 29.4632 20.1183 29.747C19.8343 30.078 19.6923 30.5036 19.6923 31.0711V34.1924H18.1775V27.9971H19.6449V28.6592C19.8343 28.4228 20.1183 28.2809 20.4023 28.139C20.7337 27.9971 21.1124 27.9026 21.5384 27.9026C22.0118 27.9026 22.3905 27.9971 22.7692 28.1863C23.1005 28.3282 23.3846 28.6119 23.5739 28.8957C23.8106 28.6119 24.142 28.3755 24.5207 28.1863C24.8993 27.9971 25.3727 27.9026 25.8461 27.9026C26.6035 27.9026 27.2189 28.0917 27.6922 28.5646C28.1656 29.0376 28.4023 29.6997 28.4023 30.5982V34.1451H26.8875V30.7874ZM36.6863 29.4159C36.4023 28.943 36.0236 28.5646 35.5502 28.2809C35.0769 27.9971 34.5562 27.9026 33.9408 27.9026C33.3254 27.9026 32.8047 28.0444 32.284 28.3282C31.8106 28.6119 31.4319 28.9903 31.1479 29.4632C30.8639 29.9361 30.7218 30.5036 30.7218 31.0711C30.7218 31.6859 30.8639 32.2062 31.1479 32.7264C31.4319 33.1993 31.8106 33.5776 32.3313 33.8614C32.852 34.1452 33.4674 34.287 34.1301 34.287C34.6508 34.287 35.1242 34.1924 35.5502 34.0506C35.9763 33.8614 36.3076 33.6249 36.5917 33.2939L36.639 33.2466L35.7869 32.3007L35.7396 32.348C35.3135 32.7737 34.7928 33.0101 34.1301 33.0101C33.6094 33.0101 33.1834 32.8683 32.852 32.6318C32.5206 32.3953 32.3313 32.0643 32.2366 31.6859H36.9703V31.6387V31.213C37.065 30.4563 36.923 29.9361 36.6863 29.4159ZM35.5976 30.5036H32.284C32.3786 30.1253 32.5207 29.7943 32.8047 29.5578C33.0887 29.3213 33.4674 29.1794 33.9408 29.1794C34.3668 29.1794 34.7455 29.3213 35.0769 29.5578C35.3609 29.7943 35.5029 30.1253 35.5976 30.5036ZM3.31356 43.0816H7.28987V39.8184H8.89935V47.8581H7.28987V44.4531H3.31356V47.8581H1.7041V39.8184H3.31356V43.0816ZM16.284 41.9939C15.7633 41.7101 15.1952 41.5682 14.5798 41.5682C13.9645 41.5682 13.3964 41.7101 12.8757 41.9939C12.355 42.2776 11.9763 42.656 11.6923 43.1289C11.4083 43.6018 11.2662 44.1693 11.2662 44.7368C11.2662 45.3043 11.4083 45.8718 11.6923 46.3921C11.9763 46.865 12.355 47.2433 12.8757 47.5271C13.3964 47.8108 13.9171 47.9527 14.5798 47.9527C15.1952 47.9527 15.7633 47.8108 16.284 47.5271C16.8047 47.2433 17.1834 46.865 17.4674 46.3921C17.7514 45.9191 17.8934 45.3516 17.8934 44.7368C17.8934 44.122 17.7514 43.6018 17.4674 43.1289C17.1834 42.656 16.7573 42.2776 16.284 41.9939ZM15.8579 46.1083C15.5266 46.4394 15.1005 46.6285 14.6272 46.6285C14.1538 46.6285 13.7278 46.4394 13.3964 46.1083C13.0651 45.7773 12.923 45.3043 12.923 44.7841C12.923 44.2166 13.0651 43.791 13.3964 43.4599C13.7278 43.1289 14.1538 42.9397 14.6272 42.9397C15.1005 42.9397 15.5739 43.1289 15.8579 43.4599C16.1893 43.791 16.3313 44.2639 16.3313 44.7841C16.3313 45.3043 16.142 45.7773 15.8579 46.1083ZM22.6745 46.6285C22.9585 46.6285 23.2425 46.5339 23.4319 46.392L23.5266 46.2502L23.9526 47.3852L23.9052 47.4325C23.7632 47.5743 23.5266 47.7162 23.2899 47.7635C23.0532 47.8108 22.8165 47.8581 22.5325 47.8581C21.8697 47.8581 21.349 47.7162 20.9703 47.3379C20.5917 46.9595 20.4023 46.4393 20.4023 45.7772V42.9397H19.4082V41.7101H20.4023V40.3386H21.9171V41.7101H23.5266V42.9397H21.9171V45.7772C21.9171 46.0137 21.9644 46.2501 22.1064 46.392C22.2484 46.5339 22.4378 46.6285 22.6745 46.6285ZM30.1065 41.9939C29.6331 41.7101 29.1124 41.6155 28.497 41.6155C27.8816 41.6155 27.3609 41.7574 26.8402 42.0411C26.3668 42.3249 25.9881 42.7032 25.7041 43.1762C25.4201 43.6491 25.2781 44.2166 25.2781 44.7841C25.2781 45.3989 25.4201 45.9191 25.7041 46.4393C25.9881 46.9123 26.3668 47.2906 26.8875 47.5744C27.4082 47.8581 28.0236 48 28.6863 48C29.207 48 29.6804 47.9054 30.1065 47.7635C30.5325 47.5744 30.8639 47.3379 31.1479 47.0069L31.1952 46.9596L30.3431 46.0137L30.2958 46.061C29.8698 46.4866 29.3491 46.7231 28.6863 46.7231C28.1656 46.7231 27.7396 46.5812 27.4082 46.3448C27.0769 46.1083 26.8875 45.7773 26.7929 45.3989H31.5266V45.3516V44.926C31.5266 44.3112 31.3846 43.7437 31.1479 43.2708C30.9585 42.6559 30.5798 42.2776 30.1065 41.9939ZM26.8402 44.2166C26.9349 43.8383 27.0769 43.5072 27.3609 43.2708C27.6449 43.0343 28.0236 42.8924 28.497 42.8924C28.923 42.8924 29.3017 43.0343 29.6331 43.2708C29.9171 43.5072 30.1065 43.8383 30.1538 44.2166H26.8402ZM33.9407 39.2982H35.4555V47.8108H33.9407V39.2982Z" fill="white"/>
</svg>
