<svg width="24" height="24" viewBox="0 0 24 24" fill="none" xmlns="http://www.w3.org/2000/svg">
<path d="M6.54545 5H17.4545C19.1905 5 20.8554 5.7375 22.0829 7.05025C23.3104 8.36301 24 10.1435 24 12C24 13.8565 23.3104 15.637 22.0829 16.9497C20.8554 18.2625 19.1905 19 17.4545 19C15.5127 19 13.7782 18.1017 12.5782 16.6667H11.4218C10.2218 18.1017 8.48727 19 6.54545 19C4.80949 19 3.14463 18.2625 1.91712 16.9497C0.689608 15.637 0 13.8565 0 12C0 10.1435 0.689608 8.36301 1.91712 7.05025C3.14463 5.7375 4.80949 5 6.54545 5ZM5.45455 8.5V10.8333H3.27273V13.1667H5.45455V15.5H7.63636V13.1667H9.81818V10.8333H7.63636V8.5H5.45455ZM15.8182 12C15.3842 12 14.968 12.1844 14.6611 12.5126C14.3542 12.8408 14.1818 13.2859 14.1818 13.75C14.1818 14.2141 14.3542 14.6592 14.6611 14.9874C14.968 15.3156 15.3842 15.5 15.8182 15.5C16.2522 15.5 16.6684 15.3156 16.9753 14.9874C17.2821 14.6592 17.4545 14.2141 17.4545 13.75C17.4545 13.2859 17.2821 12.8408 16.9753 12.5126C16.6684 12.1844 16.2522 12 15.8182 12ZM19.0909 8.5C18.6569 8.5 18.2407 8.68437 17.9338 9.01256C17.6269 9.34075 17.4545 9.78587 17.4545 10.25C17.4545 10.7141 17.6269 11.1592 17.9338 11.4874C18.2407 11.8156 18.6569 12 19.0909 12C19.5249 12 19.9411 11.8156 20.248 11.4874C20.5549 11.1592 20.7273 10.7141 20.7273 10.25C20.7273 9.78587 20.5549 9.34075 20.248 9.01256C19.9411 8.68437 19.5249 8.5 19.0909 8.5Z" fill="white"/>
</svg>
