<svg width="18" height="16" viewBox="0 0 18 16" fill="none" xmlns="http://www.w3.org/2000/svg">
<path fill-rule="evenodd" clip-rule="evenodd" d="M5.44238 14.1203L7.60929 14.6952V13.9434L7.78618 13.7665H9.02438V14.6509V15.27H7.69773L6.06149 14.5625L5.44238 14.1203Z" fill="#CDBDB2"/>
<path fill-rule="evenodd" clip-rule="evenodd" d="M12.5181 14.1203L10.3954 14.6952V13.9434L10.2185 13.7665H8.98033V14.6509V15.27H10.307L11.9431 14.5625L12.5181 14.1203Z" fill="#CDBDB2"/>
<path fill-rule="evenodd" clip-rule="evenodd" d="M7.78626 12.4841L7.60938 13.9434L7.83044 13.7665H10.13L10.3953 13.9434L10.2184 12.4841L9.86464 12.2629L8.09577 12.3072L7.78626 12.4841Z" fill="#393939"/>
<path fill-rule="evenodd" clip-rule="evenodd" d="M6.59229 2.62256L7.65361 5.09897L8.14008 12.3072H9.86469L10.3954 5.09897L11.3682 2.62256H6.59229Z" fill="#F89C35"/>
<path fill-rule="evenodd" clip-rule="evenodd" d="M1.94915 8.06188L0.710938 11.6438L3.80646 11.4669H5.79639V9.91919L5.70795 6.73523L5.26573 7.089L1.94915 8.06188Z" fill="#F89D35"/>
<path fill-rule="evenodd" clip-rule="evenodd" d="M4.29297 8.45984L7.91915 8.54828L7.52119 10.4056L5.79651 9.96338L4.29297 8.45984Z" fill="#D87C30"/>
<path fill-rule="evenodd" clip-rule="evenodd" d="M4.29297 8.50415L5.79651 9.91925V11.3343L4.29297 8.50415Z" fill="#EA8D3A"/>
<path fill-rule="evenodd" clip-rule="evenodd" d="M5.79639 9.96338L7.56526 10.4056L8.14018 12.3072L7.74214 12.5282L5.79639 11.3785V9.96338Z" fill="#F89D35"/>
<path fill-rule="evenodd" clip-rule="evenodd" d="M5.79616 11.3785L5.44238 14.1203L7.78617 12.4841L5.79616 11.3785Z" fill="#EB8F35"/>
<path fill-rule="evenodd" clip-rule="evenodd" d="M7.91878 8.54834L8.13993 12.3072L7.47656 10.3836L7.91878 8.54834Z" fill="#EA8E3A"/>
<path fill-rule="evenodd" clip-rule="evenodd" d="M3.76221 11.4228L5.7964 11.3785L5.44263 14.1203L3.76221 11.4228Z" fill="#D87C30"/>
<path fill-rule="evenodd" clip-rule="evenodd" d="M1.68381 15.3142L5.44262 14.1202L3.7622 11.4227L0.710938 11.6438L1.68381 15.3142Z" fill="#EB8F35"/>
<path fill-rule="evenodd" clip-rule="evenodd" d="M7.65382 5.099L5.75232 6.69098L4.29297 8.45985L7.91915 8.59255L7.65382 5.099Z" fill="#E8821E"/>
<path fill-rule="evenodd" clip-rule="evenodd" d="M5.44238 14.1203L7.78617 12.4841L7.60929 13.8992V14.6952L6.0173 14.3856L5.44238 14.1203Z" fill="#DFCEC3"/>
<path fill-rule="evenodd" clip-rule="evenodd" d="M12.5181 14.1203L10.2185 12.4841L10.3954 13.8992V14.6952L11.9874 14.3856L12.5181 14.1203Z" fill="#DFCEC3"/>
<path fill-rule="evenodd" clip-rule="evenodd" d="M6.94614 9.34436L7.43262 10.3615L5.70793 9.91928L6.94614 9.34436Z" fill="#393939"/>
<path fill-rule="evenodd" clip-rule="evenodd" d="M1.63965 0.544189L7.6538 5.09898L6.63674 2.62257L1.63965 0.544189Z" fill="#E88F35"/>
<path fill-rule="evenodd" clip-rule="evenodd" d="M1.63974 0.544189L0.84375 2.97638L1.28597 5.62969L0.976415 5.80657L1.41863 6.20457L1.06486 6.51412L1.5513 6.95634L1.24175 7.22167L1.94929 8.1061L5.26592 7.089C6.88738 5.79183 7.68337 5.12851 7.65389 5.09902C7.62441 5.06954 5.61969 3.55127 1.63974 0.544189Z" fill="#8E5A30"/>
<path fill-rule="evenodd" clip-rule="evenodd" d="M16.0113 8.06188L17.2495 11.6438L14.154 11.4669H12.1641V9.91919L12.2525 6.73523L12.6947 7.089L16.0113 8.06188Z" fill="#F89D35"/>
<path fill-rule="evenodd" clip-rule="evenodd" d="M13.6675 8.45984L10.0413 8.54828L10.4393 10.4056L12.1639 9.96338L13.6675 8.45984Z" fill="#D87C30"/>
<path fill-rule="evenodd" clip-rule="evenodd" d="M13.6675 8.50415L12.1639 9.91925V11.3343L13.6675 8.50415Z" fill="#EA8D3A"/>
<path fill-rule="evenodd" clip-rule="evenodd" d="M12.1641 9.96338L10.3952 10.4056L9.82027 12.3072L10.2183 12.5282L12.1641 11.3785V9.96338Z" fill="#F89D35"/>
<path fill-rule="evenodd" clip-rule="evenodd" d="M12.1643 11.3785L12.5181 14.1203L10.2185 12.5283L12.1643 11.3785Z" fill="#EB8F35"/>
<path fill-rule="evenodd" clip-rule="evenodd" d="M10.0417 8.54834L9.82052 12.3072L10.4839 10.3836L10.0417 8.54834Z" fill="#EA8E3A"/>
<path fill-rule="evenodd" clip-rule="evenodd" d="M14.1982 11.4228L12.164 11.3785L12.5178 14.1203L14.1982 11.4228Z" fill="#D87C30"/>
<path fill-rule="evenodd" clip-rule="evenodd" d="M16.2766 15.3142L12.5178 14.1202L14.1983 11.4227L17.2495 11.6438L16.2766 15.3142Z" fill="#EB8F35"/>
<path fill-rule="evenodd" clip-rule="evenodd" d="M10.3066 5.099L12.2081 6.69098L13.6675 8.45985L10.0413 8.59255L10.3066 5.099Z" fill="#E8821E"/>
<path fill-rule="evenodd" clip-rule="evenodd" d="M11.0143 9.34436L10.5278 10.3615L12.2525 9.91928L11.0143 9.34436Z" fill="#393939"/>
<path fill-rule="evenodd" clip-rule="evenodd" d="M16.3208 0.544189L10.3066 5.09898L11.3237 2.62257L16.3208 0.544189Z" fill="#E88F35"/>
<path fill-rule="evenodd" clip-rule="evenodd" d="M16.3207 0.544189L17.1167 2.97638L16.6745 5.62969L16.984 5.80657L16.5418 6.20457L16.8956 6.51412L16.4092 6.95634L16.7187 7.22167L16.0112 8.1061L12.6945 7.089C11.0731 5.79183 10.2771 5.12851 10.3066 5.09902C10.336 5.06954 12.3408 3.55127 16.3207 0.544189Z" fill="#8E5A30"/>
</svg>
