<svg width="20" height="20" viewBox="0 0 20 20" fill="none" xmlns="http://www.w3.org/2000/svg">
<path d="M0 9.6C0 6.23969 0 4.55953 0.653961 3.27606C1.2292 2.14708 2.14708 1.2292 3.27606 0.653961C4.55953 0 6.23969 0 9.6 0H10.4C13.7603 0 15.4405 0 16.7239 0.653961C17.8529 1.2292 18.7708 2.14708 19.346 3.27606C20 4.55953 20 6.23969 20 9.6V10.4C20 13.7603 20 15.4405 19.346 16.7239C18.7708 17.8529 17.8529 18.7708 16.7239 19.346C15.4405 20 13.7603 20 10.4 20H9.6C6.23969 20 4.55953 20 3.27606 19.346C2.14708 18.7708 1.2292 17.8529 0.653961 16.7239C0 15.4405 0 13.7603 0 10.4V9.6Z" fill="white"/>
<path d="M15.25 10.75H10.75V15.25H9.25V10.75H4.75V9.25H9.25V4.75H10.75V9.25H15.25V10.75Z" fill="#788CAB"/>
</svg>
