<svg width="15" height="16" viewBox="0 0 15 16" fill="none" xmlns="http://www.w3.org/2000/svg">
<path d="M5.83268 0.910156C7.26927 0.910156 8.64702 1.48084 9.66284 2.49666C10.6787 3.51248 11.2493 4.89023 11.2493 6.32682C11.2493 7.66849 10.7577 8.90182 9.94935 9.85182L10.1743 10.0768H10.8327L14.9993 14.2435L13.7493 15.4935L9.58268 11.3268V10.6685L9.35768 10.4435C8.40768 11.2518 7.17435 11.7435 5.83268 11.7435C4.39609 11.7435 3.01834 11.1728 2.00252 10.157C0.986698 9.14116 0.416016 7.76341 0.416016 6.32682C0.416016 4.89023 0.986698 3.51248 2.00252 2.49666C3.01834 1.48084 4.39609 0.910156 5.83268 0.910156V0.910156ZM5.83268 2.57682C3.74935 2.57682 2.08268 4.24349 2.08268 6.32682C2.08268 8.41016 3.74935 10.0768 5.83268 10.0768C7.91602 10.0768 9.58268 8.41016 9.58268 6.32682C9.58268 4.24349 7.91602 2.57682 5.83268 2.57682Z" fill="#788CAB"/>
</svg>
