<svg width="20" height="20" viewBox="0 0 20 20" fill="none" xmlns="http://www.w3.org/2000/svg">
<path d="M10.0003 1.66675C5.40033 1.66675 1.66699 5.40008 1.66699 10.0001C1.66699 14.6001 5.40033 18.3334 10.0003 18.3334C14.6003 18.3334 18.3337 14.6001 18.3337 10.0001C18.3337 5.40008 14.6003 1.66675 10.0003 1.66675ZM16.217 7.60008L13.9003 8.55842C13.4753 7.42508 12.5837 6.52508 11.442 6.10841L12.4003 3.79175C14.1503 4.45842 15.542 5.85008 16.217 7.60008ZM10.0003 12.5001C8.61699 12.5001 7.50033 11.3834 7.50033 10.0001C7.50033 8.61675 8.61699 7.50008 10.0003 7.50008C11.3837 7.50008 12.5003 8.61675 12.5003 10.0001C12.5003 11.3834 11.3837 12.5001 10.0003 12.5001ZM7.60866 3.78341L8.58366 6.10008C7.43366 6.51675 6.52533 7.42508 6.10033 8.57508L3.78366 7.60842C4.45866 5.85008 5.85033 4.45841 7.60866 3.78341ZM3.78366 12.3917L6.10033 11.4334C6.52533 12.5834 7.42533 13.4834 8.57533 13.9001L7.60033 16.2167C5.85033 15.5417 4.45866 14.1501 3.78366 12.3917ZM12.4003 16.2167L11.442 13.9001C12.5837 13.4751 13.4837 12.5751 13.9003 11.4251L16.217 12.4001C15.542 14.1501 14.1503 15.5417 12.4003 16.2167Z" fill="#7256FF"/>
</svg>
