<svg width="24" height="24" viewBox="0 0 24 24" fill="none" xmlns="http://www.w3.org/2000/svg">
<path fill-rule="evenodd" clip-rule="evenodd" d="M2.7497 11.4424C4.70133 10.3538 6.87986 9.44519 8.91538 8.53195C12.4173 7.03612 15.933 5.56623 19.4843 4.19777C20.1752 3.9646 21.4167 3.73664 21.5385 4.77358C21.4718 6.24137 21.1976 7.70056 21.0095 9.15975C20.5322 12.3686 19.9803 15.5665 19.4423 18.7649C19.2568 19.8301 17.9391 20.3817 17.0958 19.7C15.0694 18.3137 13.0273 16.9411 11.0267 15.5227C10.3713 14.8483 10.9791 13.88 11.5643 13.3984C13.2334 11.7325 15.0034 10.3174 16.5853 8.56562C17.0119 7.52205 15.7512 8.40148 15.3354 8.671C13.0504 10.2656 10.8214 11.9575 8.41231 13.359C7.18176 14.0449 5.74754 13.4587 4.51755 13.0759C3.41471 12.6135 1.79866 12.1476 2.74957 11.4426L2.7497 11.4424Z" fill="#788CAB"/>
</svg>
