<svg width="24" height="24" viewBox="0 0 24 24" fill="none" xmlns="http://www.w3.org/2000/svg">
<path d="M20.9999 6.72084C20.3374 7.02199 19.6233 7.21989 18.8833 7.31453C19.6405 6.85851 20.2256 6.13576 20.5009 5.26673C19.7867 5.69694 18.9952 5.99809 18.1606 6.17017C17.4808 5.43021 16.5258 5 15.4416 5C13.4196 5 11.7676 6.65201 11.7676 8.6912C11.7676 8.98375 11.802 9.26769 11.8623 9.53442C8.79917 9.37954 6.07164 7.90822 4.25615 5.67973C3.9378 6.2218 3.75711 6.85851 3.75711 7.52964C3.75711 8.81166 4.40242 9.94742 5.40051 10.5927C4.78961 10.5927 4.22174 10.4207 3.72269 10.1625C3.72269 10.1625 3.72269 10.1625 3.72269 10.1883C3.72269 11.978 4.99612 13.4751 6.68254 13.8107C6.37279 13.8967 6.04583 13.9398 5.71026 13.9398C5.47795 13.9398 5.24564 13.914 5.02193 13.8709C5.48655 15.325 6.83742 16.4092 8.46361 16.435C7.2074 17.4331 5.61562 18.0182 3.87757 18.0182C3.58503 18.0182 3.29248 18.001 2.99994 17.9665C4.63474 19.0163 6.57929 19.6272 8.66151 19.6272C15.4416 19.6272 19.1672 14 19.1672 9.12142C19.1672 8.95794 19.1672 8.80306 19.1586 8.63958C19.8814 8.12333 20.5009 7.46941 20.9999 6.72084Z" fill="#788CAB"/>
</svg>
