<svg width="56" height="72" viewBox="0 0 56 72" fill="none" xmlns="http://www.w3.org/2000/svg">
<path d="M-2.68854e-07 66.2826L-3.19794e-06 3.99266C-3.30182e-06 1.78352 1.79086 -7.27675e-08 4 -1.62531e-07L52 -2.1129e-06C54.2091 -2.20266e-06 56 1.79086 56 4L56 66.2693C56 69.0507 53.2316 70.983 50.6207 70.0239L29.3793 62.221C28.4888 61.8939 27.5112 61.8939 26.6207 62.221L5.37927 70.0239C2.76845 70.983 -1.38063e-07 69.064 -2.68854e-07 66.2826Z" fill="white"/>
<path fill-rule="evenodd" clip-rule="evenodd" d="M15.0491 15.7147L13.2756 27.4595H15.4432L25.375 19.4589V17.37L15.1673 25.6071L16.5073 16.5818L22.2615 11.9706L26.9121 14.8477H26.9909V12.9953L22.0644 10L15.0491 15.7147ZM41.8098 15.7147L34.7551 10L29.8286 12.9953V14.8477H29.9074L34.558 11.9706L40.3122 16.5818L41.6522 25.6071L31.4445 17.37V19.4589L41.3763 27.4595H43.5439L41.8098 15.7147ZM18.0445 38.3361C17.5716 38.4937 17.0987 38.5725 16.6258 38.5725C15.9558 38.5725 15.3252 38.4149 14.7735 38.0602C14.2217 37.7843 13.7882 37.3508 13.4729 36.8385C13.1576 36.3261 13 35.735 13 35.065C13 34.395 13.1576 33.8039 13.4729 33.2915C13.7882 32.7792 14.2217 32.3851 14.7735 32.0698C15.3252 31.7939 15.9558 31.6363 16.6258 31.6363C17.1775 31.6363 17.6898 31.7151 18.1628 31.9122C18.5963 32.1092 18.9904 32.3851 19.3057 32.7398L19.3451 32.7792L18.5175 33.6068L18.478 33.5674C18.0051 33.0551 17.414 32.8186 16.7046 32.8186C16.2316 32.8186 15.8376 32.8974 15.4829 33.0945C15.1282 33.2521 14.8523 33.528 14.6552 33.8827C14.4582 34.2374 14.34 34.6315 14.34 35.065C14.34 35.4985 14.4582 35.8926 14.6552 36.2473C14.8523 36.602 15.1282 36.8779 15.4829 37.0749C15.8376 37.272 16.2711 37.3902 16.7046 37.3902C17.1775 37.3902 17.611 37.272 18.0051 37.0749V34.9862H19.2662V37.7055C18.9116 37.9814 18.5175 38.1784 18.0445 38.3361ZM24.1138 38.3361C24.3502 38.2572 24.5079 38.0996 24.6655 37.942L24.6655 37.942V38.4543H25.8872V35.4591C25.8872 34.7497 25.6902 34.1586 25.2961 33.8039C24.902 33.4492 24.3108 33.2521 23.562 33.2521C23.1285 33.2521 22.7344 33.2915 22.3797 33.4098C21.9856 33.528 21.6703 33.6856 21.3944 33.8827L21.355 33.9221L21.8674 34.868L21.9068 34.8285C22.1038 34.6709 22.3009 34.5527 22.5768 34.4739C22.8526 34.395 23.1285 34.3556 23.4044 34.3556C23.7985 34.3556 24.1138 34.4344 24.3108 34.6315C24.5079 34.8285 24.6261 35.065 24.6261 35.4197V35.4591H23.365C22.6162 35.4591 22.1038 35.6167 21.7491 35.8926C21.3944 36.1685 21.2368 36.5626 21.2368 37.0355C21.2368 37.3508 21.3156 37.5873 21.4733 37.8237C21.6309 38.0602 21.8674 38.2572 22.1432 38.3755C22.4191 38.4937 22.7738 38.5725 23.1679 38.5725C23.4832 38.5331 23.8379 38.4543 24.1138 38.3361ZM24.1138 37.3902C23.8773 37.5084 23.6408 37.5873 23.365 37.5873C23.0891 37.5873 22.8526 37.5084 22.695 37.3902C22.5373 37.272 22.4585 37.1143 22.4585 36.9173C22.4585 36.4838 22.7738 36.2867 23.4438 36.2867H24.6261V36.7991C24.5079 37.0749 24.3502 37.2326 24.1138 37.3902ZM35.3851 35.6562C35.3851 35.2621 35.3063 34.9074 35.1092 34.7103C34.9516 34.5133 34.6757 34.395 34.2422 34.395C33.8875 34.395 33.5722 34.5527 33.3358 34.7891C33.0993 35.065 32.9811 35.4197 32.9811 35.8926V38.4937H31.7199V35.6956C31.7199 35.3015 31.6411 34.9468 31.4441 34.7497C31.2864 34.5527 31.0106 34.4344 30.6559 34.4344C30.3012 34.4344 29.9859 34.5527 29.7494 34.7891C29.513 35.065 29.3947 35.4197 29.3947 35.8926V38.4937H28.1336V33.3309H29.3553V33.8827C29.513 33.6856 29.7494 33.5674 29.9859 33.4492C30.2618 33.3309 30.577 33.2521 30.9317 33.2521C31.3258 33.2521 31.6411 33.3309 31.9564 33.4886C32.2323 33.6068 32.4687 33.8433 32.6264 34.0797C32.8234 33.8433 33.0993 33.6462 33.4146 33.4886C33.7299 33.3309 34.124 33.2521 34.5181 33.2521C35.1486 33.2521 35.661 33.4098 36.0551 33.8039C36.4492 34.198 36.6462 34.7497 36.6462 35.4985V38.4543H35.3851V35.6562ZM43.5431 34.5133C43.3066 34.1191 42.9913 33.8039 42.5972 33.5674C42.2031 33.3309 41.7696 33.2521 41.2573 33.2521C40.7449 33.2521 40.3114 33.3704 39.8779 33.6068C39.4838 33.8433 39.1685 34.1586 38.9321 34.5527C38.6956 34.9468 38.5774 35.4197 38.5774 35.8926C38.5774 36.405 38.6956 36.8385 38.9321 37.272C39.1685 37.6661 39.4838 37.9814 39.9173 38.2178C40.3508 38.4543 40.8632 38.5725 41.4149 38.5725C41.8484 38.5725 42.2425 38.4937 42.5972 38.3755C42.9519 38.2178 43.2278 38.0208 43.4643 37.7449L43.5037 37.7055L42.7943 36.9173L42.7549 36.9567C42.4002 37.3114 41.9667 37.5084 41.4149 37.5084C40.9814 37.5084 40.6267 37.3902 40.3508 37.1932C40.075 36.9961 39.9173 36.7202 39.8385 36.405H43.7795V36.3655V36.0109C43.8584 35.3803 43.7401 34.9468 43.5431 34.5133ZM39.8779 35.4197C39.9567 35.1044 40.075 34.8285 40.3114 34.6315C40.5479 34.4344 40.8632 34.3162 41.2573 34.3162C41.612 34.3162 41.9273 34.4344 42.2031 34.6315C42.4396 34.8285 42.5578 35.1044 42.6366 35.4197H39.8779ZM15.7587 45.9013H19.0692V43.182H20.4091V49.8818H19.0692V47.0442H15.7587V49.8818H14.4187V43.182H15.7587V45.9013ZM26.5572 44.9949C26.1237 44.7584 25.6507 44.6402 25.1384 44.6402C24.6261 44.6402 24.1531 44.7584 23.7196 44.9949C23.2861 45.2313 22.9708 45.5466 22.7344 45.9407C22.4979 46.3348 22.3797 46.8078 22.3797 47.2807C22.3797 47.7536 22.4979 48.2265 22.7344 48.66C22.9708 49.0541 23.2861 49.3694 23.7196 49.6059C24.1531 49.8424 24.5867 49.9606 25.1384 49.9606C25.6507 49.9606 26.1237 49.8424 26.5572 49.6059C26.9907 49.3694 27.306 49.0541 27.5424 48.66C27.7789 48.2659 27.8971 47.793 27.8971 47.2807C27.8971 46.7683 27.7789 46.3348 27.5424 45.9407C27.306 45.5466 26.9513 45.2313 26.5572 44.9949ZM26.2025 48.4236C25.9266 48.6995 25.5719 48.8571 25.1778 48.8571C24.7837 48.8571 24.429 48.6995 24.1531 48.4236C23.8773 48.1477 23.759 47.7536 23.759 47.3201C23.759 46.8472 23.8773 46.4925 24.1531 46.2166C24.429 45.9407 24.7837 45.7831 25.1778 45.7831C25.5719 45.7831 25.966 45.9407 26.2025 46.2166C26.4783 46.4925 26.5966 46.8866 26.5966 47.3201C26.5966 47.7536 26.4389 48.1477 26.2025 48.4236ZM31.8776 48.8571C32.114 48.8571 32.3505 48.7783 32.5081 48.66L32.587 48.5418L32.9416 49.4876L32.9022 49.5271C32.784 49.6453 32.587 49.7635 32.3899 49.8029C32.1929 49.8423 31.9958 49.8817 31.7593 49.8817C31.2076 49.8817 30.7741 49.7635 30.4588 49.4482C30.1435 49.1329 29.9859 48.6994 29.9859 48.1477V45.7831H29.1582V44.7584H29.9859V43.6155H31.247V44.7584H32.587V45.7831H31.247V48.1477C31.247 48.3447 31.2864 48.5418 31.4046 48.66C31.5229 48.7783 31.6805 48.8571 31.8776 48.8571ZM38.065 44.9949C37.6709 44.7584 37.2374 44.6796 36.7251 44.6796C36.2127 44.6796 35.7792 44.7978 35.3457 45.0343C34.9516 45.2707 34.6363 45.586 34.3999 45.9801C34.1634 46.3742 34.0452 46.8472 34.0452 47.3201C34.0452 47.8324 34.1634 48.2659 34.3999 48.6994C34.6363 49.0936 34.9516 49.4088 35.3851 49.6453C35.8186 49.8818 36.331 50 36.8827 50C37.3162 50 37.7103 49.9212 38.065 49.8029C38.4197 49.6453 38.6956 49.4482 38.9321 49.1724L38.9715 49.133L38.2621 48.3448L38.2227 48.3842C37.868 48.7389 37.4345 48.9359 36.8827 48.9359C36.4492 48.9359 36.0945 48.8177 35.8186 48.6206C35.5428 48.4236 35.3851 48.1477 35.3063 47.8324H39.2473V47.793V47.4383C39.2473 46.926 39.1291 46.4531 38.9321 46.059C38.7744 45.5466 38.4591 45.2313 38.065 44.9949ZM35.3457 46.8472C35.4245 46.5319 35.5428 46.256 35.7792 46.059C36.0157 45.8619 36.331 45.7437 36.7251 45.7437C37.0798 45.7437 37.3951 45.8619 37.6709 46.059C37.9074 46.256 38.065 46.5319 38.1044 46.8472H35.3457ZM41.2572 42.7485H42.5184V49.8423H41.2572V42.7485Z" fill="#7256FF"/>
</svg>
