<svg width="21" height="20" viewBox="0 0 21 20" fill="none" xmlns="http://www.w3.org/2000/svg">
<path d="M13 7.5H8V12.5H13V7.5ZM11.3333 10.8333H9.66667V9.16667H11.3333V10.8333ZM18 9.16667V7.5H16.3333V5.83333C16.3333 4.91667 15.5833 4.16667 14.6667 4.16667H13V2.5H11.3333V4.16667H9.66667V2.5H8V4.16667H6.33333C5.41667 4.16667 4.66667 4.91667 4.66667 5.83333V7.5H3V9.16667H4.66667V10.8333H3V12.5H4.66667V14.1667C4.66667 15.0833 5.41667 15.8333 6.33333 15.8333H8V17.5H9.66667V15.8333H11.3333V17.5H13V15.8333H14.6667C15.5833 15.8333 16.3333 15.0833 16.3333 14.1667V12.5H18V10.8333H16.3333V9.16667H18ZM14.6667 14.1667H6.33333V5.83333H14.6667V14.1667Z" fill="white"/>
</svg>
