<?xml version="1.0" standalone="no"?>
<!DOCTYPE svg PUBLIC "-//W3C//DTD SVG 20010904//EN"
 "http://www.w3.org/TR/2001/REC-SVG-20010904/DTD/svg10.dtd">
<svg version="1.0" xmlns="http://www.w3.org/2000/svg"
 width="167.000000pt" height="167.000000pt" viewBox="0 0 167.000000 167.000000"
 preserveAspectRatio="xMidYMid meet">
<metadata>
Created by potrace 1.14, written by Peter Selinger 2001-2017
</metadata>
<g transform="translate(0.000000,167.000000) scale(0.100000,-0.100000)"
fill="#000000" stroke="none">
<path d="M448 1293 c-18 -15 -35 -30 -38 -33 -3 -3 -52 -43 -110 -90 -58 -46
-107 -87 -110 -90 -3 -3 -25 -21 -50 -41 -32 -26 -46 -45 -48 -65 -1 -16 -9
-67 -17 -114 -8 -47 -17 -107 -21 -135 -3 -27 -8 -57 -9 -67 -2 -9 -6 -38 -10
-65 -3 -26 -10 -70 -15 -98 -5 -27 -11 -69 -14 -92 l-4 -43 59 0 60 0 232 187
c128 104 250 202 273 220 39 31 41 35 40 85 -1 29 -5 52 -9 51 -9 -2 -65 -46
-337 -266 -113 -91 -207 -162 -208 -156 -2 5 3 55 12 112 9 56 19 122 22 147
3 25 9 68 14 95 6 28 11 65 12 83 3 38 9 44 207 201 62 50 118 88 125 84 6 -3
61 -37 122 -75 62 -37 116 -68 121 -68 7 0 9 42 4 92 -1 4 -204 132 -263 164
-3 2 -21 -8 -40 -23z"/>
<path d="M1046 1238 l-136 -81 0 -54 0 -53 38 23 c20 13 79 50 130 81 l93 58
132 -107 c73 -58 144 -116 159 -128 19 -16 28 -35 32 -67 3 -25 7 -56 10 -70
3 -14 7 -45 10 -70 4 -25 8 -56 10 -70 3 -14 10 -61 16 -105 6 -44 13 -90 15
-103 2 -12 2 -22 -1 -22 -2 0 -41 30 -87 67 -46 38 -101 82 -123 100 -21 17
-106 85 -188 152 -83 66 -151 119 -152 118 -1 -1 -4 -25 -5 -54 l-3 -52 65
-51 c35 -29 81 -66 103 -83 21 -18 116 -94 210 -170 l171 -137 61 0 62 0 -8
38 c-5 20 -11 60 -14 87 -4 28 -11 75 -16 105 -5 30 -12 75 -15 100 -3 25 -8
54 -9 65 -2 11 -6 45 -10 75 -4 30 -9 62 -11 70 -2 8 -7 35 -10 59 -4 24 -12
49 -18 55 -11 10 -195 161 -329 268 l-46 38 -136 -82z"/>
</g>
</svg>
