<svg width="1368" height="88" fill="none" xmlns="http://www.w3.org/2000/svg"><g clip-path="url(#a)"><path fill="url(#b)" d="M0 0h1368v88H0z"/><g opacity=".14" fill="#fff"><path d="M887.657-146.095c-29.116 29.115-62.624 53.954-99.121 72.993-37.903 19.743-78.442 35.443-117.574 50.674C631.008-6.962 589.649 9.089 551.22 29.359 479.691 67.143 419.586 127.6 381.917 199.832l-.586-.469c37.727-72.173 97.891-132.806 169.42-170.591 38.488-20.328 79.847-36.38 119.8-51.846 39.192-15.172 79.672-30.93 117.575-50.673 72.114-37.668 132.63-97.715 170.474-169.302 14.997-28.471 20.679-53.72 26.655-80.434 9.9-44.581 20.215-90.743 75.805-157l.53.527c-55.54 66.198-65.849 112.244-75.867 156.825-5.975 26.713-11.599 52.021-26.655 80.55-18.629 35.384-42.94 68.014-71.411 96.485Z"/><path d="M857.663-118.561c-22.203 22.202-45.226 39.953-69.713 53.778-39.016 21.91-83.421 36.321-126.42 50.264-40.129 13.063-81.664 26.479-118.981 46.104-67.076 35.325-105.506 95.664-150.029 165.494-3.807 6.034-7.674 12.127-11.657 18.219l-.586-.468c3.925-6.152 7.791-12.244 11.658-18.219 44.522-69.947 82.952-130.287 150.146-165.612 37.434-19.625 78.91-33.1 119.039-46.163 42.882-13.942 87.287-28.354 126.303-50.263 59.988-33.978 111.774-91.506 162.858-181.136 15.583-27.417 22.906-49.502 30.639-72.935 13.063-39.66 26.6-80.726 84.01-149.267l.52.527c-57.35 68.482-70.881 109.431-83.945 149.091-7.381 22.379-14.997 45.577-30.638 73.052-30.17 53.251-60.808 95.138-93.204 127.534Z"/><path d="M834.464-93.957c-14.235 14.235-29.818 27.006-47.041 37.551-39.191 23.609-86.467 36.204-132.161 48.39C614.02 2.995 571.314 14.42 534.055 33.868c-49.209 25.776-74.223 68.483-103.163 117.926-14.938 25.483-30.404 51.845-50.732 79.086l-.586-.469c20.328-27.24 35.794-53.602 50.732-79.085 28.998-49.502 54.072-92.267 103.339-118.102C570.903 13.775 613.61 2.352 654.91-8.72c45.694-12.185 92.97-24.78 132.103-48.33 61.921-37.903 101.464-103.691 139.777-167.311 5.038-8.436 10.369-17.164 15.524-25.6 15.524-25.366 24.546-44.815 33.275-63.62 16.989-36.556 32.981-71.06 93.501-143.409l.52.527c-60.45 72.29-76.446 106.795-93.435 143.35-8.729 18.805-17.751 38.254-33.275 63.62-5.155 8.436-10.369 17.165-15.524 25.601-27.651 45.928-56.005 93.028-92.912 129.935Z"/><path d="M818.764-74.273c-9.783 9.783-20.328 18.57-31.869 26.245-38.957 25.131-88.81 35.735-137.023 46.104-42.765 9.139-86.995 18.57-124.311 38.078-43.117 22.496-61.277 60.457-82.25 104.394-15.524 32.513-33.216 69.419-64.03 105.975l-.527-.528c30.814-36.555 48.389-73.344 63.971-105.916 21.031-43.995 39.192-81.957 82.425-104.57C562.584 16.003 606.814 6.57 649.637-2.626c48.038-10.31 97.833-20.973 136.731-46.046 49.795-32.806 80.961-88.576 110.955-142.471 11.716-20.973 23.843-42.707 36.672-62.332 10.955-16.696 19.332-29.994 26.714-41.71 25.014-39.66 40.071-63.621 112.241-149.971l.53.528c-72.12 86.408-87.23 110.31-112.186 150.028-7.381 11.717-15.758 25.015-26.772 41.77-12.888 19.566-24.956 41.241-36.672 62.214-23.023 41.417-46.69 83.948-79.086 116.344Z"/><path d="M808.278-58.28c-6.796 6.795-14.119 13.063-21.969 18.57-38.605 26.538-90.86 35.208-141.358 43.527-44.406 7.381-90.275 14.938-128.002 34.505-40.07 20.855-53.31 56.941-68.717 98.828-14.118 38.371-30.053 81.956-69.889 124.838l-.527-.527c39.719-42.882 55.77-86.35 69.83-124.78 15.407-41.886 28.647-78.09 68.834-99.062 37.727-19.567 83.655-27.182 128.119-34.505 50.498-8.319 102.636-16.99 141.183-43.468 43.82-30.932 69.479-83.304 94.317-133.919 13.943-28.471 28.354-57.879 45.694-82.601 27.651-39.367 41.418-54.071 64.324-78.383 18.333-19.508 43.463-46.28 86.763-98.242l.52.527c-43.29 51.963-68.48 78.676-86.756 98.243-22.847 24.37-36.673 39.015-64.265 78.324-17.34 24.722-31.751 54.13-45.752 82.542-20.27 41.593-41.184 84.417-72.349 115.583Z"/><path d="M800.896-44.572c-4.745 4.745-9.783 9.197-15.114 13.24C747.645-3.39 693.046 3.172 640.264 9.558c-46.104 5.565-93.79 11.306-131.868 30.99-38.196 19.8-47.569 55.302-58.29 96.368-11.365 43.233-24.253 92.325-72.114 140.187l-.41.41-.528-.528.41-.41c47.803-47.803 60.692-96.777 72.057-140.011 10.779-41.125 20.093-76.684 58.523-96.602 38.137-19.742 85.94-25.483 132.044-31.048C692.754 2.528 747.294-4.092 785.372-31.86c40.129-30.287 61.804-81.722 82.718-131.458 14.353-34.153 29.174-69.361 49.795-96.895 24.546-32.747 40.304-44.757 60.164-59.929 22.671-17.282 50.851-38.782 102.991-101.465l.52.528c-52.19 62.741-80.43 84.182-103.101 101.464-19.86 15.173-35.56 27.123-60.106 59.871-20.562 27.475-35.442 62.741-49.736 96.836-18.219 43.058-36.848 87.463-67.721 118.336Z"/><path d="M795.332-32.211a127.587 127.587 0 0 1-10.252 9.197c-37.61 29.291-91.974 33.626-149.385 38.196-47.861 3.808-97.363 7.733-135.969 27.592-37.024 19.098-42.882 54.481-49.736 95.43-7.264 43.82-16.286 97.95-67.077 148.74-2.05 2.051-4.217 4.101-6.385 6.152l-.527-.528c56.356-52.489 65.788-109.138 73.345-154.657 6.795-41.007 12.712-76.45 49.912-95.723 38.605-19.86 88.166-23.843 136.145-27.65 57.41-4.57 111.657-8.905 149.208-38.138 37.61-30.228 55.946-81.956 73.638-131.868 13.825-38.898 28.061-79.144 51.259-108.318 24.605-30.932 42.531-40.071 63.21-50.674 26.772-13.767 57.122-29.35 112.122-95.489l.53.527c-55.07 66.198-85.469 81.84-112.241 95.607-20.68 10.603-38.489 19.742-63.035 50.614-23.198 29.174-37.434 69.303-51.259 108.202-15.993 45.167-32.513 91.798-63.503 122.788Z"/><path d="M791.113-20.73c-2.109 2.11-4.218 4.102-6.503 6.035-37.082 30.638-93.555 32.982-153.251 35.5-49.677 2.11-101.054 4.16-140.07 24.195-36.203 18.63-38.898 52.49-42.237 95.313-3.691 46.573-8.143 103.866-61.804 157.528a255.45 255.45 0 0 1-11.424 10.72l-.527-.527c64.44-56.59 69.303-118.395 73.169-167.955 3.222-41.3 6.034-76.918 42.413-95.606 39.133-20.035 90.51-22.203 140.246-24.253 59.637-2.46 115.993-4.804 153.017-35.384 35.735-30.58 51.142-83.128 66.022-133.977 12.653-43.234 25.776-87.873 51.318-118.102 25.307-29.877 44.873-35.969 67.486-42.999 29.701-9.197 63.272-19.684 119.972-87.99l.53.527c-56.76 68.365-90.449 78.851-120.209 88.107-22.554 6.972-42.003 13.064-67.252 42.883-25.483 30.169-38.606 74.809-51.26 117.925-14.059 47.686-28.412 96.837-59.636 128.06Z"/><path d="M787.657-9.774c-1.171 1.171-2.343 2.343-3.632 3.515-36.555 31.985-95.078 32.278-157 32.688-51.494.293-104.803.645-144.346 20.856-35.618 18.277-35.501 52.49-35.442 95.781.117 49.444.175 109.959-56.415 166.667-4.862 4.862-10.193 9.724-15.934 14.528l-.528-.527c72.467-60.516 72.291-127.241 72.232-180.843-.058-43.41-.176-77.739 35.677-96.134 39.601-20.269 92.97-20.562 144.522-20.913 61.863-.352 120.269-.762 156.707-32.63 34.212-31.05 46.983-84.945 59.285-136.966 11.189-47.158 22.789-96.016 50.439-126.83 26.128-29.174 47.452-32.22 72.115-35.794 32.572-4.686 69.423-10.017 127.413-79.964l.53.527c-58.17 70.123-95.078 75.395-127.709 80.14-24.604 3.515-45.811 6.561-71.88 35.677-27.592 30.755-39.133 79.554-50.322 126.713-11.834 50.03-24.136 101.933-55.712 133.509Z"/><path d="M784.786.712 783.497 2c-35.969 33.274-96.602 31.693-160.691 29.935-53.368-1.464-108.552-2.87-148.623 17.516-35.149 18.044-32.571 52.724-29.291 96.544 3.925 52.313 8.788 116.226-50.849 175.863-6.034 6.034-12.654 11.951-20.094 17.868l-.527-.528c80.492-64.323 75.044-135.852 70.767-193.321-3.339-43.995-5.916-78.792 29.467-96.953 40.129-20.445 95.372-18.98 148.857-17.516C686.485 33.049 747 34.63 782.911 1.532c33.041-31.752 43.292-87.112 53.251-140.656 9.491-50.966 19.274-103.749 48.858-134.973 27.182-28.588 51.435-28.705 77.094-28.822 35.384-.117 75.516-.293 134.676-71.763l.53.527c-59.28 71.587-99.529 71.763-134.972 71.939-25.541.117-49.736.175-76.742 28.705-29.467 31.107-39.309 83.831-48.741 134.739-9.9 52.782-20.093 107.498-52.079 139.484Z"/><path d="M782.853 10.378C747.41 45 684.786 41.426 618.471 37.56c-55.243-3.222-112.36-6.444-152.958 14.118-34.915 17.81-29.818 53.017-23.491 97.539 7.908 55.243 17.574 122.554-45.05 185.179-7.03 7.029-14.938 14.001-23.901 20.855l-.469-.586c88.459-68.072 77.563-144.346 68.834-205.565-6.385-44.698-11.482-80.023 23.667-97.949 40.715-20.68 97.891-17.399 153.192-14.236 66.14 3.808 128.705 7.44 164.03-27.064 31.928-32.514 39.954-89.631 47.628-144.874 7.615-54.599 15.524-111.13 46.924-142.53l.059-.059c28.178-28.061 54.364-25.073 82.132-21.91 38.195 4.335 81.492 9.315 141.772-63.503l.52.527c-60.34 72.994-103.804 68.073-142.116 63.621-27.651-3.164-53.72-6.151-81.781 21.792l-.059.059c-31.283 31.283-39.191 87.697-46.807 142.296-7.674 55.36-15.641 112.536-47.744 145.108Z"/><path d="M781.506 19.575c-35.032 35.032-99.238 29.526-167.252 23.609-57.117-4.98-116.168-10.018-157.351 10.779-34.622 17.633-27.3 53.427-18.044 98.652 6.62 32.162 14.06 68.659 7.85 106.268-7.205 43.41-31.634 80.024-74.575 111.951l-.468-.586c96.543-71.705 79.906-152.665 66.549-217.691-9.315-45.519-16.696-81.37 18.219-99.18 41.242-20.855 100.351-15.759 157.586-10.779 67.897 5.8 132.044 11.365 166.959-23.55l.762-.762c31.048-33.391 36.789-92.325 42.296-149.384 5.624-58.231 11.482-118.453 44.639-149.853 29.233-27.592 57.352-21.5 87.229-15.056 41.008 8.905 87.525 18.981 148.745-55.125l.52.527c-61.39 74.282-108.023 64.206-149.206 55.243-29.643-6.444-57.762-12.537-86.76 14.938l-1.523 1.523c-31.693 31.693-37.434 90.861-43 148.096-5.565 57.118-11.306 116.168-42.413 149.619l-.762.761Z"/><path d="M779.807 29.124c-15.407 15.407-38.605 23.843-70.708 25.718-29.936 1.699-65.026-2.226-99.004-6.093-59.051-6.678-119.976-13.59-161.745 7.44-34.505 17.516-24.956 53.896-12.888 99.941 8.904 33.978 18.98 72.408 13.825 112.126-4.452 34.564-20.035 65.027-47.217 92.209-8.963 8.963-19.215 17.574-30.756 25.952l-.468-.586c104.569-75.278 82.073-160.925 64.03-229.701-12.127-46.221-21.734-82.776 13.064-100.468 41.827-21.09 102.928-14.118 161.979-7.44 69.127 7.85 134.505 15.231 169.185-19.45.703-.702 1.348-1.347 1.992-2.108 30.287-34.27 33.802-95.196 37.258-154.188 3.574-61.687 7.265-125.483 42.18-156.883 30.287-27.124 60.456-17.926 92.442-8.202 43.82 13.357 93.494 28.588 155.714-46.748l.52.527c-62.33 75.454-112.239 60.222-156.175 46.748-31.752-9.724-61.804-18.922-91.916 8.143-34.797 31.283-38.488 94.962-42.062 156.649-3.397 59.05-6.971 120.035-37.316 154.481l-1.934 1.933Z"/><path d="M777.991 38.79c-15.348 15.349-37.844 23.082-70.24 24.312-30.638 1.113-65.143-3.632-101.757-8.729-60.925-8.436-123.901-17.164-166.139 4.101-34.387 17.399-22.73 54.481-7.967 101.347 11.248 35.735 24.019 76.157 19.918 117.984-4.686 48.506-31.283 89.163-81.312 124.195l-.469-.586c112.595-78.852 82.953-172.935 61.277-241.593-14.88-47.1-26.537-84.3 8.143-101.874C481.8 36.68 544.893 45.41 605.877 53.904c72.642 10.077 141.3 19.567 174.751-18.804 29.525-35.15 30.931-98.184 32.278-159.168.762-32.63 1.465-66.373 6.62-95.079 5.741-32.22 16.52-54.598 32.923-68.658 31.4-26.713 63.562-14.353 97.657-1.347 46.631 17.926 99.474 38.195 162.624-38.43l.53.527c-28.24 34.329-56.94 52.255-87.58 54.891-27.01 2.285-51.731-7.205-75.633-16.344-33.86-13.005-65.905-25.249-97.129 1.289-36.38 31.107-37.903 98.359-39.367 163.444-1.406 61.043-2.754 124.136-32.338 159.46-1.054.938-2.109 1.992-3.222 3.105Z"/><path d="M776.526 48.222c-15.114 15.114-37.61 22.496-70.064 23.081-31.283.586-66.901-5.272-104.569-11.306-62.801-10.193-127.827-20.738-170.592.703-34.329 17.34-20.621 55.067-3.222 102.695 13.65 37.434 29.057 79.789 26.187 123.784-2.461 37.492-18.044 70.415-47.393 99.765-10.604 10.603-23.023 20.797-37.259 30.463l-.468-.586c120.679-82.367 84.592-181.253 58.289-253.485-17.458-47.92-31.224-85.823 3.398-103.339 42.94-21.5 107.967-10.955 170.884-.761 74.751 12.185 145.342 23.608 178.324-16.052 28.881-36.145 28.178-101.288 27.475-164.323-.352-34.329-.762-69.771 3.749-99.707 5.038-33.626 15.817-56.707 32.982-70.591 32.513-26.303 66.725-10.838 102.87 5.507 49.443 22.378 105.503 47.744 169.483-30.053l.52.527c-28.7 34.915-58.23 52.138-90.27 52.9-28.181.644-54.484-11.248-79.85-22.671-35.97-16.286-70.006-31.693-102.343-5.566-38.079 30.932-37.317 101.64-36.555 170.006.644 63.093 1.347 128.353-27.534 164.615a71.838 71.838 0 0 1-4.042 4.394Z"/><path d="M775.179 57.654c-14.998 14.997-37.434 21.968-70.006 21.968-31.986 0-68.6-6.854-107.381-14.001-64.733-12.01-131.693-24.37-175.044-2.695-34.27 17.282-18.629 55.653 1.289 104.159 16.052 39.133 34.271 83.48 32.572 129.584-1.933 53.603-30.697 98.184-87.873 136.262l-.469-.586c128.763-85.881 86.233-189.572 55.184-265.26-19.976-48.799-35.793-87.346-1.171-104.862 43.526-21.734 110.544-9.314 175.395 2.695 76.859 14.177 149.501 27.65 181.78-13.298 28.237-37.141 25.425-104.51 22.788-169.595-1.464-36.029-2.987-73.17.821-104.394 4.276-34.973 15.114-58.699 32.923-72.525 33.626-25.893 69.83-7.264 108.201 12.361 52.314 26.889 111.422 57.294 176.392-21.734l.53.528c-29.12 35.442-59.52 52.02-92.97 50.907-29.471-.995-57.239-15.29-84.011-29.056-38.137-19.625-74.165-38.079-107.556-12.42-39.602 30.697-36.614 104.804-33.685 176.508 2.636 65.202 5.389 132.63-22.906 169.947a53.936 53.936 0 0 1-4.803 5.507Z"/><path d="M773.891 66.91c-14.822 14.82-37.434 21.5-70.065 20.855-32.63-.645-70.357-8.377-110.134-16.638-66.666-13.708-135.618-27.943-179.554-6.033-34.329 17.223-16.638 56.238 5.741 105.682 18.453 40.831 39.426 87.111 39.015 135.324-.468 56.122-30.228 102.636-91.036 142.355l-.469-.586c136.848-89.279 87.756-197.773 51.904-277.093-22.495-49.678-40.246-88.987-5.565-106.327 44.112-21.968 113.122-7.674 179.905 6.034 78.969 16.286 153.544 31.693 185.296-10.603 27.651-38.196 22.847-107.791 18.219-174.985-2.578-37.61-5.273-76.626-2.109-108.963 3.632-36.321 14.352-60.632 32.864-74.341 34.74-25.483 72.994-3.749 113.474 19.274 55.009 31.224 117.343 66.725 183.183-13.415l.53.527c-29.52 35.969-60.81 51.904-95.61 48.857-30.692-2.694-59.925-19.273-88.22-35.383-40.246-22.906-78.383-44.523-112.829-19.215-41.184 30.404-35.853 107.908-30.639 182.952 4.628 67.31 9.432 137.023-18.277 175.277-1.758 2.344-3.632 4.453-5.624 6.445Z"/><path d="M1116.36-266.188c-26.3 26.303-54.48 37.023-85.65 32.806-31.923-4.394-62.679-23.316-92.38-41.652-42.414-26.245-82.542-51.025-118.16-26.069-42.765 30.111-35.442 107.381-27.592 189.278 6.619 69.538 13.415 141.476-13.709 180.785-14.294 19.918-38.488 28.53-76.332 27.124-33.333-1.23-71.998-9.9-112.888-19.157-68.6-15.524-139.543-31.517-184.065-9.49-34.329 17.223-14.763 56.942 9.959 107.205 35.618 72.29 82.659 167.955-2.285 252.899-12.478 12.478-27.709 24.663-46.28 36.556l-.468-.586c144.99-92.736 89.22-206.034 48.506-288.81-24.898-50.557-44.581-90.51-9.842-107.909 44.639-22.144 115.758-6.092 184.416 9.49 81.02 18.337 157.586 35.619 188.752-7.85 27.065-39.25 20.27-111.071 13.65-180.491-3.75-39.25-7.616-79.906-5.038-113.532 2.87-37.668 13.591-62.566 32.864-76.098 35.852-25.073 76.157-.235 118.863 26.186 57.762 35.735 123.259 76.157 189.979-5.097l.53.528c-4.28 4.979-8.55 9.607-12.83 13.884Z"/><path d="M1120.81-254.941c-26.94 26.948-56.12 37.142-88.69 31.283-33.157-5.975-65.436-27.358-96.543-48.037-44.581-29.584-86.76-57.469-123.491-33.04-19.859 13.298-30.521 38.722-32.571 77.562-1.816 34.74 3.222 77.036 8.025 117.926 8.553 71.705 17.399 145.928-9.256 186.409a56.529 56.529 0 0 1-6.737 8.143c-14.645 14.645-37.316 20.679-70.357 18.922-34.036-1.816-73.696-11.483-115.641-21.793-70.533-17.34-143.468-35.208-188.576-12.83-34.388 17.165-13.005 57.645 14.118 108.788 39.836 75.219 92.443 174.574 4.394 262.623-13.181 13.181-29.467 26.069-49.385 38.606l-.468-.586c153.133-96.192 90.568-214.293 44.991-300.526-27.241-51.494-48.741-92.091-14.001-109.49 45.225-22.379 118.277-4.511 188.927 12.83 83.187 20.386 161.687 39.601 192.208-5.097 26.596-40.305 17.75-114.411 9.139-186.057-4.862-40.949-9.9-83.246-8.084-117.985 2.05-38.957 12.77-64.44 32.747-77.855 36.965-24.663 79.32 3.397 124.136 33.098 31.048 20.621 63.21 41.887 96.245 47.862 37.44 6.737 70.3-7.85 100.53-44.757l.53.528c-3.98 4.803-8.09 9.373-12.19 13.473Z"/><path d="M1125.15-243.576c-27.53 27.534-57.7 37.317-91.8 29.701-34.387-7.674-68.13-31.341-100.702-54.305-46.748-32.923-90.978-64.031-128.822-39.895-20.562 13.181-31.166 39.133-32.455 79.203-1.113 35.911 5.097 79.848 11.073 122.378 10.544 74.048 21.441 150.557-4.746 192.091-13.708 21.09-38.43 29.643-77.797 26.948-34.739-2.402-75.395-13.064-118.394-24.429C508.982 69.02 434.056 49.276 388.42 71.83c-34.446 17.224-11.248 58.348 18.161 110.369 24.663 43.644 55.301 97.95 58.875 152.607 2.929 45.225-12.771 84.827-47.745 119.8-14.294 14.294-31.751 27.768-52.548 40.598l-.469-.586c161.336-99.707 91.974-222.495 41.301-312.184-29.526-52.373-52.9-93.673-18.044-111.072 45.812-22.613 120.914-2.812 193.497 16.227 85.237 22.32 165.729 43.527 195.665-2.46 26.01-41.36 15.231-117.75 4.745-191.74-6.034-42.589-12.244-86.526-11.072-122.495 1.288-40.304 11.95-66.315 32.63-79.613 38.137-24.312 82.542 6.971 129.525 40.012 32.513 22.905 66.139 46.572 100.409 54.129 38.72 8.729 72.53-5.272 103.11-42.647l.52.527c-3.86 4.686-7.85 9.139-11.83 13.122Z"/><path d="M1129.43-232.152c-28.12 28.119-59.23 37.317-94.73 28.061-35.62-9.256-70.828-35.325-104.864-60.574-48.975-36.321-95.255-70.533-134.153-46.866-21.207 13.005-31.752 39.484-32.279 80.902-.469 37.024 6.913 82.718 14.118 126.83 12.42 76.274 25.308 155.126-.41 197.715-2.226 3.632-4.803 6.796-7.674 9.666-14.47 14.47-37.375 19.918-70.826 17.165-35.383-2.929-77.035-14.587-121.089-27.007-74.399-20.855-151.435-42.472-197.656-19.683-34.505 17.164-9.549 58.992 22.085 111.95 27.065 45.226 60.691 101.582 65.612 158.289 5.741 66.198-28.061 120.621-103.221 166.373l-.469-.585c75.102-45.695 108.787-100 103.046-165.964-4.862-56.531-38.489-112.77-65.495-157.937-31.81-53.251-57-95.313-22.027-112.712 46.397-22.847 123.491-1.172 198.008 19.683 87.346 24.429 169.771 47.569 199.12.294 25.601-42.473 12.713-121.207.293-197.364-7.147-44.171-14.587-89.806-14.118-126.947.527-41.652 11.131-68.19 32.513-81.254 39.25-23.901 85.764 10.545 134.856 46.983 33.919 25.132 69.069 51.142 104.45 60.398 40.31 10.428 74.93-2.87 105.92-40.773l.53.527c-3.81 4.628-7.62 8.905-11.54 12.83Z"/><path d="M1133.7-220.729c-28.7 28.706-60.75 37.317-97.65 26.421-36.853-10.955-73.467-39.367-108.968-66.784-51.142-39.66-99.472-77.094-139.542-53.778-21.851 12.829-32.455 39.836-32.162 82.542.234 38.196 8.846 85.471 17.223 131.224 14.353 78.559 29.174 159.812 4.042 203.456-13.181 22.202-38.371 30.755-79.203 26.713-36.086-3.515-78.734-16.168-123.901-29.584C497.148 76.87 418.121 53.377 371.314 76.4c-15.876 7.908-20.036 21.441-12.947 42.706 6.561 19.45 21.5 43.293 38.84 70.826 29.408 46.866 66.139 105.155 72.407 164.03 5.214 48.448-10.486 90.744-47.803 128.061-15.641 15.641-35.09 30.404-58.406 44.346l-.469-.586c78.676-47.158 113.357-103.397 106.034-171.997-6.268-58.64-42.882-116.812-72.29-163.678-34.037-54.189-60.926-96.895-25.835-114.294 46.983-23.081 126.127.41 202.636 23.14 89.396 26.362 173.754 51.435 202.518 2.871 25.073-43.586 10.31-124.663-4.042-203.105-8.377-45.752-17.048-93.087-17.223-131.341-.235-42.882 10.369-70.005 32.337-82.952 40.422-23.433 88.928 14.177 140.304 53.954 35.384 27.416 71.939 55.77 108.615 66.666 41.53 12.361 76.97-.351 108.37-38.781l.53.527c-3.63 4.453-7.38 8.67-11.19 12.478Z"/><path d="M1137.92-209.246c-29.23 29.232-62.27 37.316-100.59 24.663-38.075-12.537-76.212-43.293-113.06-73.111-53.31-42.999-103.69-83.655-144.991-60.75-22.554 12.596-33.04 40.188-32.044 84.183.937 39.367 10.779 88.342 20.269 135.676 16.286 80.844 33.099 164.44 8.319 209.256a49.41 49.41 0 0 1-8.319 11.013C733 156.189 653.328 131.35 569.321 105.105c-78.383-24.487-159.402-49.736-206.795-26.596-15.993 7.909-19.742 21.617-11.892 43.175 7.205 19.742 23.14 43.995 41.593 72.056 31.927 48.448 71.529 108.787 79.262 169.713 4.218 33.391-1.23 63.327-16.755 91.388-17.574 31.868-48.681 61.101-92.384 86.994l-.468-.586c82.308-48.681 117.925-106.912 108.962-177.972-7.674-60.75-47.275-120.972-79.144-169.361-36.204-55.067-64.792-98.535-29.643-115.993 47.569-23.316 128.705 2.05 207.205 26.538 91.623 28.588 177.973 55.536 206.151 5.682 24.604-44.64 7.85-128.177-8.436-208.904-9.549-47.392-19.391-96.367-20.269-135.793-1.055-44.171 9.49-71.822 32.161-84.534 41.535-23.023 92.15 17.75 145.753 60.925 36.848 29.702 74.868 60.34 112.708 72.877 42.89 14.177 79.21 2.109 110.96-36.79l.53.527c-3.52 4.453-7.15 8.553-10.9 12.303Z"/><path d="M1142.14-197.764c-29.76 29.759-63.74 37.258-103.4 22.905-39.25-14.177-78.911-47.276-117.165-79.32-55.536-46.397-108.025-90.217-150.38-67.78-23.257 12.478-33.626 40.539-31.869 85.765 1.582 40.48 12.713 91.095 23.316 140.011 18.16 83.187 36.965 169.127 12.712 215.055a48.967 48.967 0 0 1-8.611 11.658c-34.622 34.622-115.759 8.084-201.289-19.918-80.316-26.303-163.327-53.427-211.364-29.994-15.993 7.909-19.508 21.734-10.896 43.585 7.85 20.035 24.721 44.64 44.346 73.169 34.33 50.029 77.036 112.302 86.175 175.336 5.038 34.564-.235 65.495-16.11 94.611-17.985 32.981-50.264 63.151-95.899 89.806l-.469-.586c85.94-50.205 122.554-110.369 111.892-183.948-9.08-62.858-51.728-125.073-85.999-175.043-19.566-28.588-36.496-53.251-44.405-73.345-8.67-22.144-5.155-36.204 11.072-44.23 48.155-23.55 131.4 3.691 211.833 29.994 93.322 30.756 181.605 59.637 209.138 8.554 24.195-45.753 5.39-131.693-12.712-214.704-10.662-48.975-21.792-99.59-23.374-140.187-1.816-45.401 8.67-73.579 32.044-86.174 42.707-22.672 95.372 21.323 151.142 67.955 38.254 31.927 77.739 64.967 116.872 79.144 44.23 15.993 81.43 4.57 113.59-34.856l.53.527c-3.52 4.335-7.09 8.377-10.72 12.01Z"/><path d="M1146.3-186.224c-30.29 30.287-65.2 37.2-106.21 21.149-40.424-15.818-81.549-51.201-121.267-85.53-57.762-49.795-112.302-96.837-155.829-74.751-23.901 12.302-34.27 40.832-31.634 87.404 2.285 41.652 14.587 93.908 26.479 144.347 20.094 85.471 40.89 173.872 17.047 220.913-2.46 4.804-5.448 8.846-8.904 12.302-34.681 34.681-117.34 6.503-204.393-23.257-82.308-28.06-167.369-57.117-215.993-33.45-16.11 7.908-19.273 21.968-10.017 43.995 8.494 20.328 26.362 45.342 47.041 74.341 36.731 51.61 82.484 115.875 93.087 181.077 5.8 35.794.762 67.78-15.465 97.715-18.454 34.036-51.845 65.202-99.473 92.677l-.468-.586c89.572-51.728 127.064-113.825 114.703-189.923-10.603-64.968-56.238-129.115-92.969-180.726-20.739-29.057-38.547-54.13-47.1-74.517-9.432-22.437-6.152-36.613 10.134-44.698 48.799-23.725 133.978 5.331 216.344 33.451 95.665 32.747 185.94 63.503 212.829 11.189 23.726-46.924 3.046-135.208-17.047-220.562-11.893-50.556-24.195-102.812-26.48-144.463-1.23-22.437.41-40.246 5.038-54.365 5.214-15.875 14.002-26.772 26.831-33.391 43.82-22.262 98.535 24.956 156.532 74.985 39.66 34.153 80.667 69.537 120.974 85.354 45.63 17.867 83.59 7.088 116.17-32.865l.52.528c-3.39 4.1-6.91 8.084-10.48 11.657Z"/><path d="M1150.22-174.449c-14.64 14.646-30.17 23.609-47.27 27.241-18.81 4.042-38.96 1.347-61.52-8.084-41.706-17.458-84.236-55.185-125.361-91.74-59.988-53.193-116.578-103.456-161.218-81.781-24.487 12.068-34.856 41.184-31.4 88.928 3.046 42.765 16.52 96.661 29.525 148.681C774.945-3.389 797.733 87.472 774.3 135.627c-2.519 5.096-5.624 9.373-9.197 12.946-34.739 34.739-118.922 4.921-207.498-26.479-84.241-29.877-171.411-60.808-220.562-36.848-9.724 4.804-14.528 11.716-14.88 21.207-.703 22.612 25.308 57.879 55.419 98.769 37.551 50.908 83.773 113.767 98.301 177.973-14.47-63.328-60.047-125.19-98.828-177.797-30.229-41.008-56.298-76.45-55.595-99.297.293-9.666 5.214-16.696 15.115-21.558 49.384-23.96 136.613 7.03 220.971 36.907 97.598 34.68 189.807 67.369 216.11 13.766 23.316-48.037.586-138.722-21.324-226.478-13.064-52.08-26.538-105.975-29.584-148.857-1.64-23.082-.234-41.242 4.335-55.653 5.155-16.169 14.06-27.182 27.241-33.685 45.049-21.851 101.816 28.588 161.979 81.956 41.067 36.497 83.539 74.165 125.077 91.564 47.1 19.684 85.94 9.666 118.86-30.873l.53.528c-3.4 4.335-6.97 8.26-10.55 11.833ZM429.544 536.856c-18.336 18.336-41.534 35.559-69.595 51.552l-.469-.586c87.932-50.205 119.742-105.799 121.031-161.687-.469 23.55-6.268 45.636-17.633 66.725-8.143 15.29-19.274 29.936-33.334 43.996Z"/></g><path opacity=".08" d="M-48.412 57.437a26.955 26.955 0 0 1 0-26.873l21.36-37.127C-22.268-14.878-13.428-20-3.86-20h42.72c9.568 0 18.408 5.122 23.192 13.437l21.36 37.127a26.955 26.955 0 0 1 0 26.873l-21.36 37.127C57.268 102.877 48.428 108 38.86 108H-3.86c-9.568 0-18.408-5.122-23.192-13.436l-21.36-37.127Z" fill="#fff"/><path opacity=".08" d="M-18.328 61.425a34.834 34.834 0 0 1 0-34.85l27.814-48.15A34.874 34.874 0 0 1 39.686-39h55.629a34.875 34.875 0 0 1 30.199 17.425l27.814 48.15a34.834 34.834 0 0 1 0 34.85l-27.814 48.15A34.876 34.876 0 0 1 95.314 127H39.686a34.876 34.876 0 0 1-30.199-17.425l-27.814-48.15Z" fill="#fff"/></g><defs><linearGradient id="b" x1="1368" y1="44" x2="0" y2="44" gradientUnits="userSpaceOnUse"><stop stop-color="#7256FF"/><stop offset="1" stop-color="#32D098"/></linearGradient><clipPath id="a"><path fill="#fff" d="M0 0h1368v88H0z"/></clipPath></defs></svg>