<svg width="420" height="420" viewBox="0 0 420 420" fill="none" xmlns="http://www.w3.org/2000/svg">
<g clip-path="url(#clip0_1522_24546)">
<path d="M365.878 96.3178C373.006 91.0952 383.076 92.6113 387.74 100.117C412.895 140.594 423.594 188.599 417.772 236.219C411.301 289.152 384.903 337.629 343.951 371.786C302.999 405.942 250.571 423.21 197.336 420.075C149.445 417.255 104.139 398.113 68.8346 366.102C62.2883 360.166 62.6042 349.987 69.0215 343.912L88.4151 325.554C94.8323 319.479 104.91 319.832 111.629 325.57C136.531 346.838 167.808 359.53 200.787 361.472C239.116 363.729 276.864 351.296 306.35 326.703C335.835 302.111 354.842 267.207 359.501 229.095C363.51 196.303 356.638 163.256 340.186 134.941C335.746 127.301 337.208 117.324 344.336 112.101L365.878 96.3178Z" fill="#E857D1"/>
<mask id="path-2-inside-1_1522_24546" fill="white">
<path d="M192.782 17.8529C192.012 9.04996 198.529 1.22529 207.365 1.1285C235 0.825797 262.479 5.99017 288.201 16.3826C313.923 26.7751 337.277 42.1483 356.946 61.5633C363.235 67.771 362.488 77.9265 355.819 83.7238L335.664 101.244C328.995 107.041 318.942 106.262 312.472 100.244C299.01 87.7222 283.339 77.7337 266.21 70.813C249.08 63.8923 230.869 60.1917 212.488 59.8474C203.653 59.682 195.88 53.2592 195.11 44.4563L192.782 17.8529Z"/>
</mask>
<path d="M192.782 17.8529C192.012 9.04996 198.529 1.22529 207.365 1.1285C235 0.825797 262.479 5.99017 288.201 16.3826C313.923 26.7751 337.277 42.1483 356.946 61.5633C363.235 67.771 362.488 77.9265 355.819 83.7238L335.664 101.244C328.995 107.041 318.942 106.262 312.472 100.244C299.01 87.7222 283.339 77.7337 266.21 70.813C249.08 63.8923 230.869 60.1917 212.488 59.8474C203.653 59.682 195.88 53.2592 195.11 44.4563L192.782 17.8529Z" fill="#EEF5FF" stroke="#0A0522" stroke-width="2" stroke-dasharray="6 6" mask="url(#path-2-inside-1_1522_24546)"/>
<path d="M90.4338 58.1709C84.9934 51.2076 86.1972 41.096 93.555 36.2024C113.975 22.6212 136.622 12.7271 160.461 6.97195C169.051 4.89825 177.288 10.8852 178.701 19.6081L182.97 45.9697C184.383 54.6925 178.423 62.8257 169.899 65.1534C155.765 69.0129 142.267 74.91 129.832 82.6582C122.332 87.3313 112.315 86.1781 106.875 79.2148L90.4338 58.1709Z" fill="#7256FF"/>
<path d="M17.8847 183.825C9.13413 182.596 2.97593 174.486 4.86931 165.855C7.28943 154.822 10.5972 144.003 14.7602 133.503C18.017 125.289 27.6573 122.009 35.5996 125.883L59.6019 137.589C67.5442 141.463 70.7549 151.021 67.7432 159.328C65.9905 164.163 64.4861 169.084 63.2356 174.072C61.087 182.643 53.0804 188.772 44.3298 187.542L17.8847 183.825Z" fill="#F63232"/>
<path d="M15.0029 245.101C8.47617 246.252 2.21626 241.896 1.44067 235.314C0.320913 225.812 -0.147041 216.244 0.0400922 206.677C0.16971 200.051 5.97466 195.105 12.5825 195.613L47.1853 198.276C53.7932 198.784 58.6877 204.558 58.7056 211.185C58.7181 215.833 58.9453 220.477 59.3863 225.103C60.0152 231.7 55.7074 237.924 49.1807 239.075L15.0029 245.101Z" fill="#339FAD"/>
<path d="M22.3278 282.688C17.6874 284.47 12.4621 282.157 10.8816 277.445C9.99684 274.807 9.16473 272.151 8.3857 269.48C6.994 264.709 9.96512 259.828 14.7922 258.642L54.3223 248.933C59.1494 247.747 63.9973 250.709 65.4685 255.457C65.5641 255.766 65.6608 256.074 65.7584 256.382C67.2601 261.12 64.9697 266.32 60.3292 268.101L22.3278 282.688Z" fill="#E83EC2"/>
<path d="M39.4908 317.112C35.2755 319.746 29.705 318.473 27.2543 314.149C25.8825 311.728 24.559 309.28 23.2847 306.807C21.008 302.388 22.9933 297.03 27.5054 294.945L64.4566 277.872C68.9687 275.787 74.2928 277.769 76.6429 282.149C76.7957 282.434 76.9494 282.718 77.1041 283.002C79.4822 287.367 78.2259 292.907 74.0106 295.541L39.4908 317.112Z" fill="#2400FF"/>
<path d="M52.8815 341.214C50.7662 342.989 47.6074 342.717 45.8833 340.56C45.2229 339.734 44.5688 338.903 43.9209 338.066C42.2297 335.883 42.7079 332.749 44.9306 331.11L84.3403 302.055C86.4485 300.501 89.4115 300.955 91.0312 303.013V303.013C92.6509 305.072 92.3955 308.058 90.3891 309.742L52.8815 341.214Z" fill="#6BBF18"/>
<path d="M42.1058 114.186C34.4531 109.768 31.7813 99.9415 36.7701 92.648C43.147 83.3253 50.2668 74.533 58.06 66.3572C64.1569 59.9609 74.3238 60.5314 80.2366 67.0983L98.1058 86.944C104.019 93.5108 103.415 103.576 97.5106 110.15C94.0745 113.976 90.8361 117.975 87.8082 122.131C82.6051 129.274 72.8857 131.957 65.233 127.538L42.1058 114.186Z" fill="#DCA068"/>
<path d="M207.406 20.7325C207.514 15.7631 211.633 11.8024 216.593 12.1228C232.627 13.1588 248.489 16.0265 263.871 20.6701C268.629 22.1066 271.1 27.2587 269.462 31.9514L264.29 46.7638C262.651 51.4565 257.524 53.909 252.754 52.5112C240.726 48.9867 228.358 46.7507 215.858 45.8408C210.9 45.4799 206.956 41.3875 207.065 36.4182L207.406 20.7325Z" fill="#F2CF68"/>
<path d="M280.568 37.2847C282.704 32.1914 288.576 29.7718 293.562 32.1468C299.488 34.9695 305.279 38.0679 310.916 41.4318C315.659 44.2619 316.904 50.4895 313.852 55.0924L306.287 66.5015C303.235 71.1043 297.043 72.335 292.275 69.5479C288.436 67.3038 284.513 65.2052 280.516 63.2567C275.552 60.8368 273.139 55.0025 275.275 49.9092L280.568 37.2847Z" fill="#F2CF68"/>
<path d="M325.618 61.0012C328.293 57.4841 333.322 56.789 336.735 59.5949C339.429 61.8091 342.066 64.09 344.647 66.4352C347.916 69.4071 347.955 74.4844 344.861 77.6386L332.474 90.2669C329.38 93.421 324.326 93.4551 321.036 90.507C319.49 89.1221 317.92 87.7646 316.326 86.435C312.934 83.6045 312.237 78.5994 314.912 75.0824L325.618 61.0012Z" fill="#F2CF68"/>
</g>
<defs>
<clipPath id="clip0_1522_24546">
<rect width="420" height="420" fill="white"/>
</clipPath>
</defs>
</svg>
