<svg width="518" height="884" viewBox="0 0 518 884" fill="none" xmlns="http://www.w3.org/2000/svg">
<path opacity="0.12" d="M31.7833 708.629C-10.5945 635.221 -10.5945 544.778 31.7833 471.37L235.416 118.629C277.794 45.2208 356.111 -0.000503847 440.867 -0.000507552L848.133 -0.000525354C932.888 -0.000529059 1011.21 45.2208 1053.58 118.629L1257.22 471.37C1299.59 544.778 1299.59 635.221 1257.22 708.629L1053.58 1061.37C1011.21 1134.78 932.889 1180 848.133 1180L440.867 1180C356.111 1180 277.794 1134.78 235.416 1061.37L31.7833 708.629Z" fill="#9BADCA"/>
<path opacity="0.12" d="M253.885 667.414C226.038 619.201 226.038 559.799 253.885 511.586L387.692 279.914C415.538 231.7 467 202 522.693 202L790.307 202C846 202 897.462 231.7 925.308 279.914L1059.12 511.586C1086.96 559.8 1086.96 619.2 1059.12 667.414L925.308 899.086C897.462 947.299 846 977 790.307 977L522.693 977C467 977 415.538 947.3 387.692 899.086L253.885 667.414Z" fill="#9BADCA"/>
</svg>
