<svg width="288" height="288" viewBox="0 0 288 288" fill="none" xmlns="http://www.w3.org/2000/svg">
<g clip-path="url(#clip0_605_13685)">
<path d="M250.888 66.0466C255.775 62.4654 262.681 63.505 265.879 68.6515C283.128 96.4072 290.465 129.325 286.473 161.979C282.035 198.276 263.934 231.517 235.852 254.939C207.771 278.36 171.82 290.201 135.316 288.052C102.477 286.118 71.4099 272.992 47.2011 251.041C42.7122 246.971 42.9288 239.991 47.3292 235.826L60.6277 223.237C65.0281 219.071 71.9382 219.313 76.5459 223.248C93.6217 237.832 115.068 246.535 137.683 247.866C163.965 249.414 189.85 240.889 210.069 224.025C230.287 207.162 243.32 183.228 246.515 157.094C249.264 134.608 244.552 111.947 233.271 92.5313C230.226 87.2922 231.229 80.4508 236.116 76.8696L250.888 66.0466Z" fill="#E857D1"/>
<path d="M132.194 12.2419C131.666 6.20562 136.134 0.840127 142.193 0.77376C161.143 0.566191 179.986 4.10747 197.624 11.2337C215.262 18.36 231.276 28.9016 244.763 42.2148C249.076 46.4715 248.563 53.4352 243.99 57.4105L230.17 69.4243C225.597 73.3996 218.703 72.8653 214.267 68.7385C205.036 60.1523 194.29 53.3031 182.544 48.5574C170.798 43.8118 158.311 41.2742 145.706 41.0382C139.648 40.9247 134.318 36.5206 133.79 30.4843L132.194 12.2419Z" fill="white" fill-opacity="0.2"/>
<path fill-rule="evenodd" clip-rule="evenodd" d="M199.499 12.0066C198.876 11.7447 198.251 11.4871 197.624 11.2337C196.997 10.9804 196.368 10.7316 195.738 10.4874L195.491 11.1267C196.117 11.3698 196.743 11.6174 197.367 11.8695C197.991 12.1216 198.613 12.378 199.233 12.6387L199.499 12.0066ZM191.937 9.07485L191.707 9.72093C190.439 9.26986 189.165 8.83701 187.886 8.42242L188.097 7.77012C189.382 8.18669 190.662 8.62162 191.937 9.07485ZM184.222 6.57423L184.029 7.23224C182.738 6.85349 181.441 6.49315 180.141 6.15127L180.315 5.48809C181.622 5.8316 182.924 6.19367 184.222 6.57423ZM176.379 4.51259L176.223 5.18043C174.913 4.87519 173.598 4.58851 172.28 4.32048L172.416 3.64852C173.741 3.91784 175.062 4.20588 176.379 4.51259ZM168.431 2.89653L168.314 3.57208C166.988 3.34127 165.66 3.12917 164.328 2.93584L164.427 2.25724C165.765 2.4515 167.1 2.66461 168.431 2.89653ZM160.406 1.73115L160.326 2.41226C158.99 2.25658 157.652 2.11972 156.311 2.00175L156.371 1.31868C157.718 1.43722 159.063 1.57473 160.406 1.73115ZM152.327 1.02016L152.286 1.70466C150.944 1.62459 149.6 1.56342 148.254 1.52121L148.276 0.835837C149.627 0.878244 150.978 0.939706 152.327 1.02016ZM144.221 0.765851L144.219 1.45156C143.546 1.44944 142.874 1.45206 142.201 1.45943C141.518 1.46691 140.858 1.54645 140.226 1.68999L140.074 1.02132C140.754 0.867006 141.462 0.781771 142.193 0.77376C142.869 0.766354 143.545 0.763721 144.221 0.765851ZM136.24 2.8304L136.658 3.37366C135.609 4.18193 134.733 5.21053 134.085 6.38781L133.484 6.05728C134.176 4.7992 135.114 3.69759 136.24 2.8304ZM132.213 10.1082L132.895 10.1811C132.825 10.8335 132.817 11.503 132.877 12.1821L133.076 14.4624L132.393 14.5222L132.194 12.2419C132.13 11.5184 132.139 10.8045 132.213 10.1082ZM132.792 19.0828L133.475 19.023L133.874 23.5836L133.191 23.6434L132.792 19.0828ZM133.59 28.204L134.273 28.1442L134.473 30.4245C134.533 31.1176 134.662 31.7871 134.85 32.4288L134.192 32.6218C133.991 31.937 133.854 31.2228 133.79 30.4843L133.59 28.204ZM136.202 36.4555L136.737 36.0262C137.588 37.0867 138.641 37.99 139.833 38.693L139.485 39.2837C138.224 38.5401 137.107 37.5828 136.202 36.4555ZM143.542 40.8124L143.671 40.139C144.339 40.2669 145.024 40.3396 145.719 40.3526C146.353 40.3645 146.987 40.3821 147.621 40.4056L147.596 41.0908C146.966 41.0675 146.336 41.05 145.706 41.0382C144.971 41.0244 144.248 40.9476 143.542 40.8124ZM151.37 41.2996C152.628 41.3922 153.883 41.5077 155.135 41.6461L155.21 40.9645C153.95 40.8252 152.686 40.709 151.421 40.6157L151.37 41.2996ZM158.884 42.1298L158.985 41.4514C160.24 41.6367 161.491 41.8449 162.739 42.0759L162.614 42.7501C161.374 42.5206 160.131 42.3138 158.884 42.1298ZM166.318 43.5062L166.467 42.8369C167.705 43.1132 168.938 43.4121 170.166 43.7337L169.992 44.397C168.772 44.0776 167.547 43.7806 166.318 43.5062ZM173.631 45.4214L173.829 44.7649C175.043 45.1306 176.251 45.5187 177.452 45.9291L177.23 46.578C176.037 46.1703 174.837 45.7847 173.631 45.4214ZM180.785 47.8653L181.03 47.2249C181.622 47.4516 182.213 47.6839 182.801 47.9216C183.389 48.1594 183.975 48.4024 184.559 48.6506L184.29 49.2816C183.711 49.035 183.129 48.7936 182.544 48.5574C181.96 48.3212 181.373 48.0905 180.785 47.8653ZM187.742 50.8248L188.033 50.204C189.182 50.7434 190.321 51.3033 191.448 51.8833L191.134 52.493C190.014 51.9168 188.883 51.3606 187.742 50.8248ZM194.463 54.2841L194.799 53.6863C195.906 54.3078 197 54.9493 198.083 55.6104L197.725 56.1955C196.65 55.5389 195.563 54.9016 194.463 54.2841ZM200.915 58.2248L201.294 57.6531C202.351 58.3535 203.396 59.0731 204.428 59.8116L204.028 60.3692C203.004 59.6355 201.966 58.9206 200.915 58.2248ZM207.062 62.6258C208.059 63.3962 209.042 64.185 210.01 64.9917L210.449 64.4648C209.474 63.6527 208.485 62.8587 207.481 62.0832L207.062 62.6258ZM212.871 67.4637L213.329 66.9531C213.801 67.3765 214.269 67.8042 214.734 68.2364C215.243 68.7099 215.786 69.1334 216.355 69.5054L215.98 70.0794C215.379 69.6863 214.805 69.2388 214.267 68.7385C213.805 68.3092 213.34 67.8842 212.871 67.4637ZM219.96 71.7978L220.12 71.131C221.466 71.4534 222.851 71.5349 224.2 71.3636L224.286 72.0439C222.852 72.226 221.384 72.1389 219.96 71.7978ZM228.396 70.6827L228.057 70.0867C228.638 69.7559 229.195 69.3633 229.72 68.9068L231.447 67.4051L231.897 67.9226L230.17 69.4243C229.61 69.9107 229.016 70.3296 228.396 70.6827ZM235.352 64.9192L234.903 64.4016L238.358 61.3982L238.807 61.9157L235.352 64.9192ZM242.263 58.9123L241.813 58.3947L243.54 56.893C244.055 56.4458 244.514 55.9586 244.917 55.4408L245.458 55.8621C245.028 56.4146 244.538 56.934 243.99 57.4105L242.263 58.9123ZM247.358 52.0654L246.696 51.8858C247.048 50.589 247.132 49.2404 246.939 47.93L247.617 47.8298C247.825 49.2358 247.734 50.6796 247.358 52.0654ZM246.116 43.8647L245.542 44.2401C245.187 43.6981 244.768 43.1825 244.282 42.7028C243.803 42.2301 243.321 41.7609 242.836 41.2953L243.31 40.8005C243.798 41.2684 244.282 41.7398 244.763 42.2148C245.284 42.7286 245.734 43.282 246.116 43.8647ZM240.345 38.0341L239.884 38.5421C238.887 37.638 237.878 36.7483 236.857 35.8733L237.303 35.3526C238.329 36.2318 239.343 37.1257 240.345 38.0341ZM234.186 32.7579L233.755 33.291C232.709 32.4447 231.651 31.6133 230.581 30.7972L230.997 30.2521C232.072 31.0722 233.135 31.9075 234.186 32.7579ZM227.739 27.8372L227.339 28.3938C226.247 27.608 225.144 26.8376 224.03 26.0829L224.415 25.5152C225.534 26.2736 226.642 27.0477 227.739 27.8372ZM221.026 23.2879L220.657 23.8662C219.523 23.1434 218.378 22.4364 217.223 21.7456L217.575 21.1571C218.736 21.8513 219.886 22.5616 221.026 23.2879ZM214.066 19.1244L213.731 19.7226C212.558 19.065 211.375 18.4237 210.183 17.7989L210.501 17.1915C211.699 17.8193 212.887 18.4637 214.066 19.1244ZM206.883 15.36L206.582 15.9761C205.374 15.3858 204.157 14.8123 202.931 14.2556L203.214 13.6312C204.446 14.1906 205.669 14.7669 206.883 15.36Z" fill="white"/>
<path d="M62.0106 39.8888C58.2801 35.114 59.1056 28.1803 64.1509 24.8247C78.1532 15.5118 93.6823 8.72731 110.029 4.78093C115.919 3.35896 121.568 7.46432 122.536 13.4457L125.464 31.5222C126.433 37.5036 122.346 43.0806 116.501 44.6768C106.809 47.3233 97.5534 51.367 89.0265 56.68C83.8838 59.8845 77.0151 59.0937 73.2846 54.3189L62.0106 39.8888Z" fill="#7256FF"/>
<path d="M12.2642 126.052C6.26379 125.208 2.04103 119.647 3.33934 113.729C4.99886 106.164 7.26702 98.7448 10.1216 91.5449C12.3549 85.9122 18.9654 83.6633 24.4115 86.3195L40.8703 94.3469C46.3164 97.0032 48.518 103.557 46.4529 109.254C45.251 112.569 44.2194 115.943 43.362 119.364C41.8886 125.241 36.3984 129.444 30.398 128.6L12.2642 126.052Z" fill="#F63232"/>
<path d="M10.288 168.069C5.81248 168.859 1.51997 165.872 0.988135 161.358C0.220304 154.842 -0.100578 148.281 0.0277417 141.722C0.116622 137.178 4.09716 133.786 8.62828 134.135L32.3559 135.961C36.887 136.309 40.2432 140.268 40.2555 144.813C40.2641 147.999 40.4199 151.184 40.7223 154.356C41.1535 158.88 38.1996 163.148 33.7242 163.937L10.288 168.069Z" fill="#339FAD"/>
<path d="M15.3107 193.843C12.1287 195.065 8.54569 193.479 7.46191 190.248C6.85525 188.439 6.28465 186.618 5.75046 184.787C4.79616 181.515 6.83349 178.168 10.1435 177.355L37.2498 170.697C40.5598 169.884 43.8841 171.915 44.8929 175.17C44.9585 175.382 45.0248 175.594 45.0918 175.805C46.1215 179.054 44.5509 182.619 41.3689 183.841L15.3107 193.843Z" fill="#E83EC2"/>
<path d="M27.0796 217.448C24.1891 219.254 20.3694 218.382 18.6889 215.416C17.7482 213.756 16.8407 212.078 15.9668 210.382C14.4057 207.352 15.767 203.678 18.8611 202.248L44.199 190.541C47.2931 189.111 50.9439 190.47 52.5553 193.474C52.6601 193.669 52.7655 193.864 52.8716 194.059C54.5023 197.052 53.6408 200.851 50.7504 202.657L27.0796 217.448Z" fill="#2400FF"/>
<path d="M36.2618 233.976C34.8113 235.193 32.6453 235.006 31.4631 233.527C31.0102 232.96 30.5616 232.39 30.1174 231.817C28.9577 230.32 29.2856 228.171 30.8097 227.047L57.8335 207.124C59.2791 206.058 61.3109 206.369 62.4216 207.78C63.5322 209.192 63.3571 211.24 61.9813 212.394L36.2618 233.976Z" fill="#6BBF18"/>
<path d="M28.8726 78.299C23.625 75.2693 21.7929 68.5314 25.2138 63.5301C29.5865 57.1374 34.4687 51.1084 39.8126 45.5022C43.9933 41.1162 50.9649 41.5074 55.0194 46.0103L67.2726 59.6188C71.3271 64.1218 70.9132 71.0234 66.8644 75.5315C64.5082 78.155 62.2876 80.8972 60.2113 83.7474C56.6435 88.645 49.9788 90.4847 44.7312 87.455L28.8726 78.299Z" fill="#DCA068"/>
<path d="M142.222 14.2168C142.296 10.8092 145.121 8.09324 148.522 8.313C159.516 9.02336 170.394 10.9898 180.941 14.174C184.204 15.159 185.898 18.6919 184.775 21.9097L181.228 32.0668C180.104 35.2847 176.589 36.9663 173.318 36.0079C165.07 33.5911 156.589 32.0578 148.018 31.4339C144.618 31.1864 141.914 28.3802 141.988 24.9726L142.222 14.2168Z" fill="#F2CF68"/>
<path d="M192.389 25.5664C193.853 22.0739 197.88 20.4148 201.299 22.0433C205.363 23.9789 209.334 26.1035 213.199 28.4102C216.451 30.3508 217.305 34.6212 215.212 37.7774L210.025 45.6008C207.932 48.7571 203.686 49.6009 200.416 47.6898C197.784 46.1509 195.094 44.7119 192.353 43.3758C188.949 41.7165 187.295 37.7158 188.759 34.2233L192.389 25.5664Z" fill="#F2CF68"/>
<path d="M223.281 41.8295C225.114 39.4178 228.563 38.9411 230.904 40.8652C232.75 42.3835 234.559 43.9475 236.328 45.5557C238.57 47.5936 238.597 51.0752 236.475 53.238L227.981 61.8974C225.86 64.0603 222.395 64.0836 220.138 62.062C219.078 61.1124 218.002 60.1816 216.909 59.2699C214.582 57.3289 214.105 53.8969 215.939 51.4852L223.281 41.8295Z" fill="#F2CF68"/>
</g>
<defs>
<clipPath id="clip0_605_13685">
<rect width="288" height="288" fill="white"/>
</clipPath>
</defs>
</svg>
