<svg width="1369" height="1004" viewBox="0 0 1369 1004" fill="none" xmlns="http://www.w3.org/2000/svg">
<g clip-path="url(#clip0_651_15511)">
<rect width="1369" height="1004" fill="#EEF5FF"/>
<path opacity="0.12" d="M882.783 828.629C840.406 755.221 840.406 664.778 882.783 591.37L1086.42 238.629C1128.79 165.221 1207.11 119.999 1291.87 119.999L1699.13 119.999C1783.89 119.999 1862.21 165.221 1904.58 238.629L2108.22 591.37C2150.59 664.778 2150.59 755.221 2108.22 828.629L1904.58 1181.37C1862.21 1254.78 1783.89 1300 1699.13 1300L1291.87 1300C1207.11 1300 1128.79 1254.78 1086.42 1181.37L882.783 828.629Z" fill="#9BADCA"/>
<path opacity="0.12" d="M1104.88 787.414C1077.04 739.201 1077.04 679.799 1104.88 631.586L1238.69 399.914C1266.54 351.7 1318 322 1373.69 322L1641.31 322C1697 322 1748.46 351.7 1776.31 399.914L1910.12 631.586C1937.96 679.8 1937.96 739.2 1910.12 787.414L1776.31 1019.09C1748.46 1067.3 1697 1097 1641.31 1097L1373.69 1097C1318 1097 1266.54 1067.3 1238.69 1019.09L1104.88 787.414Z" fill="#9BADCA"/>
</g>
<defs>
<clipPath id="clip0_651_15511">
<rect width="1369" height="1004" fill="white"/>
</clipPath>
</defs>
</svg>
