<svg width="806" height="1180" viewBox="0 0 806 1180" fill="none" xmlns="http://www.w3.org/2000/svg">
<path opacity="0.12" d="M31.7833 708.63C-10.5945 635.221 -10.5945 544.779 31.7833 471.37L235.416 118.63C277.794 45.2214 356.111 -1.63465e-05 440.867 -2.00513e-05L848.133 -3.78534e-05C932.888 -4.15582e-05 1011.21 45.2213 1053.58 118.63L1257.22 471.37C1299.59 544.779 1299.59 635.221 1257.22 708.63L1053.58 1061.37C1011.21 1134.78 932.889 1180 848.133 1180L440.867 1180C356.111 1180 277.794 1134.78 235.416 1061.37L31.7833 708.63Z" fill="#9BADCA"/>
<path opacity="0.12" d="M253.885 667.414C226.038 619.201 226.038 559.8 253.885 511.587L387.692 279.914C415.538 231.701 467 202.001 522.693 202.001L790.307 202.001C846 202 897.462 231.701 925.308 279.914L1059.12 511.587C1086.96 559.8 1086.96 619.201 1059.12 667.414L925.308 899.087C897.462 947.3 846 977 790.307 977L522.693 977C467 977 415.538 947.3 387.692 899.087L253.885 667.414Z" fill="#9BADCA"/>
</svg>
