<svg width="1368" height="636" viewBox="0 0 1368 636" fill="none" xmlns="http://www.w3.org/2000/svg">
<g clip-path="url(#clip0_651_16226)">
<rect width="1368" height="636" fill="url(#paint0_linear_651_16226)"/>
<path opacity="0.08" d="M-523.528 413.977C-562.824 345.923 -562.824 262.077 -523.528 194.024L-391.269 -35.0234C-351.973 -103.077 -279.351 -145 -200.758 -145L63.7585 -145C142.351 -145 214.973 -103.077 254.269 -35.0235L386.528 194.024C425.824 262.077 425.824 345.923 386.528 413.976L254.269 643.024C214.973 711.077 142.351 753 63.7585 753L-200.758 753C-279.351 753 -351.973 711.077 -391.269 643.024L-523.528 413.977Z" fill="white"/>
<path opacity="0.08" d="M-198.528 413.977C-237.824 345.923 -237.824 262.077 -198.528 194.024L-66.2694 -35.0235C-26.9732 -103.077 45.6492 -145 124.242 -145L388.758 -145C467.351 -145 539.973 -103.077 579.269 -35.0235L711.528 194.024C750.824 262.077 750.824 345.923 711.528 413.976L579.269 643.023C539.973 711.077 467.351 753 388.759 753L124.242 753C45.6492 753 -26.9732 711.077 -66.2694 643.024L-198.528 413.977Z" fill="white"/>
</g>
<defs>
<linearGradient id="paint0_linear_651_16226" x1="1333.17" y1="43.6812" x2="76.5159" y2="490.208" gradientUnits="userSpaceOnUse">
<stop stop-color="#739AF4"/>
<stop offset="0.5" stop-color="#D67EFF"/>
<stop offset="0.979167" stop-color="#7256FF"/>
</linearGradient>
<clipPath id="clip0_651_16226">
<rect width="1368" height="636" fill="white"/>
</clipPath>
</defs>
</svg>
