<svg width="1208" height="152" fill="none" xmlns="http://www.w3.org/2000/svg"><g clip-path="url(#a)"><path d="M0 0h1208v152H0V0Z" fill="url(#b)"/><g clip-path="url(#c)" fill="#fff"><path opacity=".08" d="M-162.499 105.19a78.381 78.381 0 0 1 0-78.38l47.123-81.62A78.381 78.381 0 0 1-47.496-94H46.75a78.38 78.38 0 0 1 67.879 39.19l47.123 81.62a78.376 78.376 0 0 1 0 78.38l-47.123 81.62A78.38 78.38 0 0 1 46.75 226h-94.247a78.38 78.38 0 0 1-67.879-39.19l-47.123-81.62Z"/><path opacity=".08" d="M-24.5 105.19a78.38 78.38 0 0 1 0-78.38l47.124-81.62A78.38 78.38 0 0 1 90.504-94h94.246a78.38 78.38 0 0 1 67.879 39.19l47.123 81.62a78.376 78.376 0 0 1 0 78.38l-47.123 81.62A78.379 78.379 0 0 1 184.75 226H90.503a78.38 78.38 0 0 1-67.879-39.19l-47.123-81.62Z"/></g></g><defs><clipPath id="a"><path d="M0 0h1208v152H0V0Z" fill="#fff"/></clipPath><clipPath id="c"><path fill="#fff" d="M0 0h1368v260H0z"/></clipPath><linearGradient id="b" x1="1177.24" y1="10.44" x2="688.525" y2="653.491" gradientUnits="userSpaceOnUse"><stop stop-color="#38B480"/><stop offset=".5" stop-color="#5C9BFA"/><stop offset=".979" stop-color="#7342FE"/></linearGradient></defs></svg>