<svg width="20" height="20" viewBox="0 0 20 20" fill="none" xmlns="http://www.w3.org/2000/svg">
<ellipse cx="10" cy="10" rx="10" ry="10" fill="#7256FF"/>
<path fill-rule="evenodd" clip-rule="evenodd" d="M7.09553 5.91797L3.99076 8.41171L3.20312 13.5545H4.32234L8.64801 10.1188V8.91257L4.33457 12.3445L4.85111 8.91424L7.19973 7.05849L9.14104 8.24264H9.33826V7.26245L7.09553 5.91797ZM8.52026 9.17738V10.0571L4.27776 13.4268H4.2778L8.52032 10.0571V9.17733L8.52026 9.17738ZM4.73236 8.84534L4.15996 12.6466L4.15989 12.6467L4.7323 8.84534L7.19027 6.90319L7.1903 6.90321L4.73236 8.84534ZM9.21052 8.11496H9.21058V7.33478L7.10615 6.07321L7.10612 6.07323L9.21052 7.33478V8.11496ZM16.8031 13.5545L16.033 8.41167L12.911 5.9181L10.6685 7.26245V8.24264H10.8657L12.807 7.05849L15.1556 8.91424L15.6722 12.3445L11.3587 8.91257V10.1188L15.6844 13.5545H16.8031ZM15.8467 12.6466L11.4864 9.17733V9.17739L15.8467 12.6467L15.8467 12.6466ZM12.8164 6.90321L12.8164 6.90319L10.8298 8.11496H10.8298L12.8164 6.90321ZM12.9006 6.07323L12.9006 6.07321L15.9141 8.48015L16.6549 13.4268H16.6548L15.9141 8.48016L12.9006 6.07323Z" fill="white"/>
</svg>
