<svg width="24" height="24" viewBox="0 0 24 24" fill="none" xmlns="http://www.w3.org/2000/svg">
<path fill-rule="evenodd" clip-rule="evenodd" d="M17.7947 15.729C17.6721 13.7076 16.8605 11.2122 15.4271 8.71511L3.82362 16.7901C2.99207 17.3692 1.84638 17.1462 1.29243 16.2974C0.738485 15.4487 0.995553 14.3101 1.86049 13.7816L13.9201 6.4128C12.203 4.09875 10.2386 2.35613 8.43333 1.43508C8.2208 1.32683 8.29301 1.00931 8.53115 1.00337C11.4636 0.929165 14.4591 2.07644 16.654 4.74176L17.3693 4.30471C17.711 4.09632 18.1566 4.19681 18.3755 4.53223L18.9389 5.39556C19.1578 5.73083 19.0705 6.17933 18.7418 6.40822L18.0561 6.88557C19.6151 9.95856 19.468 13.1573 18.2296 15.8121C18.1289 16.0277 17.8092 15.967 17.7944 15.7289L17.7947 15.729ZM23.0703 20.2299C23.0703 21.7598 21.8301 23 20.3003 23C18.7704 23 17.5302 21.7598 17.5302 20.2299C17.5302 18.7001 18.7704 17.4599 20.3003 17.4599C21.8301 17.4599 23.0703 18.7001 23.0703 20.2299ZM22.147 11.9198C22.6569 11.9198 23.0703 11.5064 23.0703 10.9964C23.0703 10.4865 22.6569 10.0731 22.147 10.0731C21.637 10.0731 21.2236 10.4865 21.2236 10.9964C21.2236 11.5064 21.637 11.9198 22.147 11.9198ZM11.9901 20.6916C11.9901 21.4565 11.37 22.0766 10.6051 22.0766C9.84013 22.0766 9.22003 21.4565 9.22003 20.6916C9.22003 19.9267 9.84013 19.3066 10.6051 19.3066C11.37 19.3066 11.9901 19.9267 11.9901 20.6916ZM12.4518 16.5365C13.2167 16.5365 13.8368 15.9164 13.8368 15.1515C13.8368 14.3866 13.2167 13.7665 12.4518 13.7665C11.6868 13.7665 11.0667 14.3866 11.0667 15.1515C11.0667 15.9164 11.6868 16.5365 12.4518 16.5365Z" fill="#788CAB"/>
</svg>
