<svg width="21" height="20" viewBox="0 0 21 20" fill="none" xmlns="http://www.w3.org/2000/svg">
<path d="M10.5026 4.99992V7.49992L13.8359 4.16658L10.5026 0.833252V3.33325C6.81927 3.33325 3.83594 6.31658 3.83594 9.99992C3.83594 11.3083 4.21927 12.5249 4.86927 13.5499L6.08594 12.3333C5.71094 11.6416 5.5026 10.8416 5.5026 9.99992C5.5026 7.24158 7.74427 4.99992 10.5026 4.99992ZM16.1359 6.44992L14.9193 7.66658C15.2859 8.36658 15.5026 9.15825 15.5026 9.99992C15.5026 12.7583 13.2609 14.9999 10.5026 14.9999V12.4999L7.16927 15.8333L10.5026 19.1666V16.6666C14.1859 16.6666 17.1693 13.6833 17.1693 9.99992C17.1693 8.69158 16.7859 7.47492 16.1359 6.44992Z" fill="white"/>
</svg>
